<svg width="64" height="64" viewBox="0 0 64 64" fill="none" xmlns="http://www.w3.org/2000/svg">
<rect width="64" height="64" fill="#343434"/>
<path d="M39.6251 42.9396C38.6083 39.6919 35.5833 37.3335 32 37.3335C28.4167 37.3335 25.3917 39.6919 24.375 42.9396" stroke="#CCA24B" stroke-width="2" stroke-linecap="round" stroke-linejoin="round"/>
<path d="M32 45.3334C39.3637 45.3334 45.3333 39.3638 45.3333 32.0001C45.3333 24.6363 39.3637 18.6667 32 18.6667C24.6362 18.6667 18.6667 24.6363 18.6667 32.0001C18.6667 39.3638 24.6362 45.3334 32 45.3334Z" stroke="#CCA24B" stroke-width="2" stroke-linecap="round" stroke-linejoin="round"/>
<path d="M34 27.3334L32 22.6667L30 27.3334L25.3333 29.3334L30 31.3334L32 36.0001L34 31.3334L38.6666 29.3334L34 27.3334Z" fill="#CCA24B"/>
</svg>
