<svg width="180" height="45" viewBox="0 0 180 45" fill="none" xmlns="http://www.w3.org/2000/svg">
<g clip-path="url(#clip0_242_273)">
<path d="M41.6614 21.1525H6.26764C5.36641 21.1525 4.62904 20.4175 4.62904 19.5191V17.0282C4.62904 14.2106 6.92308 11.9238 9.74966 11.9238H38.1384C40.965 11.9238 43.259 14.2106 43.259 17.0282V19.5191C43.3 20.4175 42.5626 21.1525 41.6614 21.1525Z" fill="#999999"/>
<path d="M34.2057 9.22867H13.7233C12.822 9.22867 12.0437 8.49365 12.0437 7.55445C12.0437 3.38929 15.4438 0 19.6222 0H28.3068C32.4852 0 35.8853 3.38929 35.8853 7.55445C35.8853 8.49365 35.1479 9.22867 34.2057 9.22867Z" fill="#999999"/>
<path d="M43.3 23.8475H4.62904C2.08921 23.8475 0 25.9301 0 28.4619C0 30.9936 2.08921 33.0762 4.62904 33.0762H18.3523C18.8439 30.4628 21.1379 28.4619 23.9235 28.4619C26.7092 28.4619 29.0442 30.4628 29.5357 33.0762H43.259C45.7988 33.0762 47.888 30.9936 47.888 28.4619C47.888 25.9301 45.8398 23.8475 43.3 23.8475Z" fill="#999999"/>
<path d="M41.6204 35.7714H29.6177V45H38.6299C41.1698 45 43.259 42.9175 43.259 40.3857V37.4456C43.3 36.5472 42.5626 35.7714 41.6204 35.7714Z" fill="#999999"/>
<path d="M6.26764 35.7714C5.36641 35.7714 4.58807 36.5064 4.58807 37.4456V40.3857C4.58807 42.9175 6.67729 45 9.21711 45H18.2294V35.7714C18.2704 35.7714 6.26764 35.7714 6.26764 35.7714Z" fill="#999999"/>
<path d="M84.5517 25.726C84.5517 30.7486 81.0696 33.9746 76.5225 33.9746C74.3514 33.9746 72.6309 33.2804 71.4838 31.892V33.7296H67.0187V11.6379H71.6887V19.4374C72.8766 18.1307 74.5152 17.4773 76.5225 17.4773C81.0287 17.4773 84.5517 20.7033 84.5517 25.726ZM79.7997 25.726C79.7997 22.9492 78.0382 21.275 75.7032 21.275C73.3682 21.275 71.6067 22.9492 71.6067 25.726C71.6067 28.5027 73.3682 30.177 75.7032 30.177C78.0382 30.177 79.7997 28.5027 79.7997 25.726Z" fill="#999999"/>
<path d="M99.7906 28.7069L102.289 31.402C100.815 33.117 98.5617 33.9746 95.6532 33.9746C90.0819 33.9746 86.477 30.5036 86.477 25.7259C86.477 20.9483 90.1229 17.4773 95.0797 17.4773C99.6268 17.4773 103.355 20.4582 103.396 25.6034L91.4747 27.8902C92.1711 29.4827 93.6459 30.2586 95.7351 30.2586C97.4556 30.2586 98.6846 29.7686 99.7906 28.7069ZM91.0241 25.2359L98.8484 23.725C98.3978 22.0916 97.005 20.9891 95.0387 20.9891C92.7447 20.9891 91.1061 22.5408 91.0241 25.2359Z" fill="#999999"/>
<path d="M118.635 28.7069L121.133 31.402C119.659 33.117 117.406 33.9746 114.497 33.9746C108.926 33.9746 105.321 30.5036 105.321 25.7259C105.321 20.9483 108.967 17.4773 113.924 17.4773C118.471 17.4773 122.198 20.4582 122.239 25.6034L110.36 27.8902C111.056 29.4827 112.531 30.2586 114.62 30.2586C116.299 30.2586 117.528 29.7686 118.635 28.7069ZM109.868 25.2359L117.692 23.725C117.242 22.0916 115.849 20.9891 113.883 20.9891C111.589 20.9891 109.991 22.5408 109.868 25.2359Z" fill="#999999"/>
<path d="M141.821 24.5826V33.7704H137.151V25.2768C137.151 22.7042 135.963 21.4791 133.873 21.4791C131.62 21.4791 130.023 22.8675 130.023 25.8076V33.7296H125.353V11.6379H130.023V19.3966C131.293 18.1307 133.095 17.4773 135.143 17.4773C138.953 17.4773 141.821 19.6824 141.821 24.5826Z" fill="#999999"/>
<path d="M145.467 12.8629C145.467 11.3929 146.655 10.2495 148.375 10.2495C150.096 10.2495 151.284 11.3112 151.284 12.7404C151.284 14.2922 150.096 15.4355 148.375 15.4355C146.655 15.4355 145.467 14.333 145.467 12.8629ZM146.04 17.7223H150.71V33.7704H146.04C146.04 33.7295 146.04 17.7223 146.04 17.7223Z" fill="#999999"/>
<path d="M154.479 12.8629C154.479 11.3929 155.667 10.2495 157.387 10.2495C159.108 10.2495 160.296 11.3112 160.296 12.7404C160.296 14.2922 159.108 15.4355 157.387 15.4355C155.667 15.4355 154.479 14.333 154.479 12.8629ZM155.052 17.7223H159.722V33.7704H155.052C155.052 33.7295 155.052 17.7223 155.052 17.7223Z" fill="#999999"/>
<path d="M180 17.7223L173.2 33.7704H168.366L161.607 17.7223H166.441L170.906 28.6252L175.494 17.7223C175.535 17.7223 180 17.7223 180 17.7223Z" fill="#999999"/>
</g>
<defs>
<clipPath id="clip0_242_273">
<rect width="180" height="45" fill="white"/>
</clipPath>
</defs>
</svg>
