<svg width="128" height="30" viewBox="0 0 128 30" fill="none" xmlns="http://www.w3.org/2000/svg">
<path d="M78.5445 8.93315C78.8754 8.93315 79.1585 9.00602 79.3938 9.15178C79.6291 9.29025 79.8092 9.49431 79.9342 9.76396C80.1548 9.58905 80.3533 9.44694 80.5298 9.33762C80.7062 9.2283 80.8643 9.14449 81.004 9.08619C81.1437 9.0206 81.2687 8.98052 81.379 8.96594C81.4893 8.94408 81.5959 8.93315 81.6989 8.93315C82.2209 8.93315 82.6327 9.07526 82.9341 9.35948C83.2356 9.64371 83.3863 10.0919 83.3863 10.7041V14.4099H82.4378V10.9009C82.4378 10.5365 82.368 10.2705 82.2283 10.1028C82.0886 9.93522 81.8569 9.85141 81.5334 9.85141C81.3422 9.85141 81.129 9.90971 80.8937 10.0263C80.6658 10.1429 80.4084 10.3105 80.1217 10.5292C80.1364 10.5948 80.1437 10.6531 80.1437 10.7041C80.1511 10.7551 80.1548 10.817 80.1548 10.8899V14.4099H79.2063V10.8681C79.2063 10.4964 79.1254 10.234 78.9636 10.081C78.8092 9.92793 78.6144 9.85141 78.3791 9.85141C78.1512 9.85141 77.9269 9.89514 77.7063 9.98259C77.4931 10.0628 77.2321 10.2085 76.9232 10.4199V14.4099H75.9747V8.98781H76.8129L76.9122 9.61091C77.1107 9.46516 77.2872 9.34855 77.4416 9.2611C77.6034 9.17364 77.7467 9.10441 77.8717 9.0534C78.0041 9.00238 78.1217 8.96959 78.2247 8.95501C78.335 8.94043 78.4416 8.93315 78.5445 8.93315ZM87.6086 13.8852C87.1748 14.1257 86.8182 14.2824 86.5388 14.3553C86.2668 14.4209 86.0204 14.4537 85.7999 14.4537C85.2705 14.4537 84.8477 14.3079 84.5315 14.0164C84.2153 13.7249 84.0573 13.3277 84.0573 12.8248C84.0573 12.526 84.1234 12.2746 84.2558 12.0706C84.3955 11.8665 84.5646 11.7025 84.7631 11.5786C84.969 11.4474 85.1859 11.3563 85.4138 11.3053C85.6491 11.247 85.8587 11.2179 86.0425 11.2179H87.6417V10.8025C87.6417 10.4235 87.5351 10.1611 87.3219 10.0154C87.1086 9.86234 86.8035 9.78582 86.4065 9.78582C86.2153 9.78582 85.98 9.81497 85.7006 9.87328C85.4285 9.92429 85.1528 10.0628 84.8734 10.2887L84.4102 9.57812C84.7631 9.30847 85.1197 9.13356 85.48 9.0534C85.8403 8.97323 86.1749 8.93315 86.4837 8.93315C87.1969 8.93315 87.7226 9.08983 88.0608 9.40321C88.4064 9.7093 88.5792 10.183 88.5792 10.8243V14.4099H87.752L87.6417 13.9071L87.6086 13.8852ZM87.6417 11.994H86.1969C86.0793 11.994 85.9506 12.005 85.8109 12.0268C85.6785 12.0414 85.5535 12.0778 85.4359 12.1361C85.3182 12.1872 85.219 12.271 85.1381 12.3876C85.0646 12.4969 85.0278 12.6426 85.0278 12.8248C85.0278 13.0872 85.1161 13.284 85.2925 13.4152C85.4763 13.5463 85.708 13.6119 85.9874 13.6119C86.1271 13.6119 86.2704 13.5937 86.4175 13.5573C86.5719 13.5135 86.719 13.4625 86.8587 13.4042C87.0057 13.3459 87.1454 13.284 87.2778 13.2184C87.4101 13.1455 87.5314 13.0799 87.6417 13.0216V11.994ZM93.5763 12.8576C93.5763 13.1127 93.5212 13.3386 93.4109 13.5354C93.3006 13.7322 93.1499 13.9034 92.9587 14.0492C92.7675 14.1877 92.5396 14.2933 92.2749 14.3662C92.0102 14.4391 91.7197 14.4755 91.4036 14.4755C91.0212 14.4755 90.6499 14.4282 90.2896 14.3334C89.9295 14.2314 89.5656 14.0419 89.1979 13.765L89.7163 13.0763C89.9884 13.3022 90.2676 13.4589 90.5543 13.5463C90.8411 13.6265 91.1536 13.6666 91.4918 13.6666C91.6242 13.6666 91.7565 13.652 91.8889 13.6229C92.0286 13.5864 92.1499 13.5354 92.2528 13.4698C92.3631 13.4042 92.4513 13.3204 92.5175 13.2184C92.5837 13.1091 92.6168 12.9815 92.6168 12.8358C92.6168 12.6026 92.5322 12.4349 92.3631 12.3329C92.194 12.2309 91.9808 12.158 91.7234 12.1143C91.444 12.0706 91.1646 12.0232 90.8852 11.9722C90.6132 11.9139 90.3668 11.8301 90.1464 11.7207C89.9259 11.6114 89.7457 11.4657 89.606 11.2835C89.4663 11.1013 89.3965 10.8608 89.3965 10.562C89.3965 10.3142 89.4479 10.0883 89.5509 9.88421C89.6538 9.68015 89.7972 9.50888 89.981 9.37042C90.1648 9.23195 90.3742 9.12627 90.6095 9.0534C90.8521 8.97323 91.1131 8.93315 91.3926 8.93315C91.8043 8.93315 92.1683 8.97687 92.4844 9.06433C92.8006 9.14449 93.1057 9.29025 93.3999 9.5016L92.9256 10.2012C92.6683 10.0409 92.4183 9.92793 92.1756 9.86234C91.933 9.79675 91.672 9.76396 91.3926 9.76396C91.069 9.76396 90.808 9.84048 90.6095 9.99352C90.411 10.1393 90.3117 10.3251 90.3117 10.551C90.3117 10.7405 90.3926 10.8826 90.5543 10.9774C90.7161 11.0721 90.9183 11.1486 91.1609 11.2069C91.4036 11.258 91.6646 11.309 91.944 11.36C92.2234 11.4037 92.4844 11.4802 92.7271 11.5896C92.9697 11.6989 93.1719 11.8519 93.3337 12.0487C93.4954 12.2455 93.5763 12.5151 93.5763 12.8576ZM98.3639 12.8576C98.3639 13.1127 98.3087 13.3386 98.1984 13.5354C98.0882 13.7322 97.9374 13.9034 97.7463 14.0492C97.5551 14.1877 97.3271 14.2933 97.0624 14.3662C96.7977 14.4391 96.5073 14.4755 96.1911 14.4755C95.8088 14.4755 95.4375 14.4282 95.0772 14.3334C94.7169 14.2314 94.353 14.0419 93.9853 13.765L94.5037 13.0763C94.7757 13.3022 95.0551 13.4589 95.3419 13.5463C95.6287 13.6265 95.9412 13.6666 96.2794 13.6666C96.4117 13.6666 96.5441 13.652 96.6764 13.6229C96.8161 13.5864 96.9375 13.5354 97.0404 13.4698C97.1507 13.4042 97.2389 13.3204 97.3051 13.2184C97.3713 13.1091 97.4044 12.9815 97.4044 12.8358C97.4044 12.6026 97.3198 12.4349 97.1507 12.3329C96.9816 12.2309 96.7683 12.158 96.511 12.1143C96.2316 12.0706 95.9522 12.0232 95.6728 11.9722C95.4007 11.9139 95.1544 11.8301 94.9338 11.7207C94.7132 11.6114 94.5331 11.4657 94.3934 11.2835C94.2537 11.1013 94.1838 10.8608 94.1838 10.562C94.1838 10.3142 94.2353 10.0883 94.3383 9.88421C94.4412 9.68015 94.5846 9.50888 94.7684 9.37042C94.9522 9.23195 95.1618 9.12627 95.3971 9.0534C95.6397 8.97323 95.9007 8.93315 96.1801 8.93315C96.5919 8.93315 96.9558 8.97687 97.272 9.06433C97.5882 9.14449 97.8933 9.29025 98.1874 9.5016L97.7132 10.2012C97.4558 10.0409 97.2058 9.92793 96.9632 9.86234C96.7205 9.79675 96.4595 9.76396 96.1801 9.76396C95.8566 9.76396 95.5956 9.84048 95.3971 9.99352C95.1985 10.1393 95.0993 10.3251 95.0993 10.551C95.0993 10.7405 95.1801 10.8826 95.3419 10.9774C95.5037 11.0721 95.7059 11.1486 95.9485 11.2069C96.1911 11.258 96.4522 11.309 96.7316 11.36C97.011 11.4037 97.272 11.4802 97.5146 11.5896C97.7573 11.6989 97.9595 11.8519 98.1212 12.0487C98.283 12.2455 98.3639 12.5151 98.3639 12.8576ZM105.581 12.8576C105.581 13.1127 105.525 13.3386 105.415 13.5354C105.305 13.7322 105.154 13.9034 104.963 14.0492C104.772 14.1877 104.544 14.2933 104.279 14.3662C104.014 14.4391 103.724 14.4755 103.408 14.4755C103.026 14.4755 102.654 14.4282 102.294 14.3334C101.934 14.2314 101.57 14.0419 101.202 13.765L101.72 13.0763C101.992 13.3022 102.272 13.4589 102.559 13.5463C102.845 13.6265 103.158 13.6666 103.496 13.6666C103.628 13.6666 103.761 13.652 103.893 13.6229C104.033 13.5864 104.154 13.5354 104.257 13.4698C104.367 13.4042 104.456 13.3204 104.522 13.2184C104.588 13.1091 104.621 12.9815 104.621 12.8358C104.621 12.6026 104.537 12.4349 104.367 12.3329C104.198 12.2309 103.985 12.158 103.728 12.1143C103.448 12.0706 103.169 12.0232 102.89 11.9722C102.617 11.9139 102.371 11.8301 102.151 11.7207C101.93 11.6114 101.75 11.4657 101.61 11.2835C101.47 11.1013 101.401 10.8608 101.401 10.562C101.401 10.3142 101.452 10.0883 101.555 9.88421C101.658 9.68015 101.801 9.50888 101.985 9.37042C102.169 9.23195 102.378 9.12627 102.614 9.0534C102.856 8.97323 103.117 8.93315 103.397 8.93315C103.809 8.93315 104.173 8.97687 104.489 9.06433C104.805 9.14449 105.11 9.29025 105.404 9.5016L104.93 10.2012C104.673 10.0409 104.423 9.92793 104.18 9.86234C103.937 9.79675 103.676 9.76396 103.397 9.76396C103.073 9.76396 102.812 9.84048 102.614 9.99352C102.415 10.1393 102.316 10.3251 102.316 10.551C102.316 10.7405 102.397 10.8826 102.559 10.9774C102.72 11.0721 102.923 11.1486 103.165 11.2069C103.408 11.258 103.669 11.309 103.948 11.36C104.228 11.4037 104.489 11.4802 104.731 11.5896C104.974 11.6989 105.176 11.8519 105.338 12.0487C105.5 12.2455 105.581 12.5151 105.581 12.8576ZM109.652 13.8852C109.218 14.1257 108.862 14.2824 108.582 14.3553C108.31 14.4209 108.064 14.4537 107.843 14.4537C107.314 14.4537 106.891 14.3079 106.575 14.0164C106.259 13.7249 106.101 13.3277 106.101 12.8248C106.101 12.526 106.167 12.2746 106.299 12.0706C106.439 11.8665 106.608 11.7025 106.807 11.5786C107.013 11.4474 107.229 11.3563 107.457 11.3053C107.693 11.247 107.902 11.2179 108.086 11.2179H109.685V10.8025C109.685 10.4235 109.579 10.1611 109.365 10.0154C109.152 9.86234 108.847 9.78582 108.45 9.78582C108.259 9.78582 108.024 9.81497 107.744 9.87328C107.472 9.92429 107.196 10.0628 106.917 10.2887L106.454 9.57812C106.807 9.30847 107.163 9.13356 107.524 9.0534C107.884 8.97323 108.218 8.93315 108.527 8.93315C109.24 8.93315 109.766 9.08983 110.104 9.40321C110.45 9.7093 110.623 10.183 110.623 10.8243V14.4099H109.796L109.685 13.9071L109.652 13.8852ZM109.685 11.994H108.24C108.123 11.994 107.994 12.005 107.854 12.0268C107.722 12.0414 107.597 12.0778 107.479 12.1361C107.362 12.1872 107.263 12.271 107.182 12.3876C107.108 12.4969 107.071 12.6426 107.071 12.8248C107.071 13.0872 107.16 13.284 107.336 13.4152C107.52 13.5463 107.752 13.6119 108.031 13.6119C108.171 13.6119 108.314 13.5937 108.461 13.5573C108.615 13.5135 108.763 13.4625 108.902 13.4042C109.049 13.3459 109.189 13.284 109.321 13.2184C109.454 13.1455 109.575 13.0799 109.685 13.0216V11.994ZM112.785 12.967C112.785 13.2512 112.848 13.4297 112.973 13.5026C113.105 13.5682 113.322 13.5937 113.624 13.5791L113.646 14.4318C113.543 14.4464 113.443 14.4573 113.348 14.4646C113.26 14.4719 113.175 14.4755 113.094 14.4755C112.837 14.4755 112.627 14.4464 112.466 14.3881C112.311 14.3225 112.186 14.2314 112.091 14.1148C111.995 13.9909 111.929 13.8451 111.892 13.6775C111.863 13.5026 111.848 13.3058 111.848 13.0872V6.58282H112.785V12.967ZM115.238 12.0487V12.4094C115.238 12.6281 115.274 12.8139 115.348 12.967C115.421 13.1127 115.521 13.2366 115.646 13.3386C115.778 13.4334 115.925 13.5026 116.087 13.5463C116.256 13.5901 116.429 13.6119 116.605 13.6119C116.789 13.6119 117.002 13.5755 117.245 13.5026C117.487 13.4297 117.723 13.2876 117.951 13.0763L118.546 13.7212C118.267 14.0055 117.954 14.2022 117.609 14.3116C117.271 14.4136 116.929 14.4646 116.583 14.4646C116.274 14.4646 115.98 14.4245 115.701 14.3444C115.421 14.2569 115.175 14.133 114.962 13.9727C114.756 13.8051 114.591 13.5974 114.466 13.3496C114.348 13.1018 114.289 12.8139 114.289 12.486V11.0539C114.289 10.7332 114.344 10.4417 114.454 10.1794C114.565 9.917 114.716 9.69472 114.907 9.51253C115.105 9.33033 115.337 9.19186 115.602 9.09712C115.874 8.99509 116.171 8.94408 116.495 8.94408C116.818 8.94408 117.116 8.99145 117.388 9.08619C117.66 9.18093 117.892 9.31576 118.083 9.49067C118.282 9.66557 118.432 9.88056 118.535 10.1356C118.646 10.3834 118.701 10.664 118.701 10.9774V12.0487H115.238ZM117.741 11.0758C117.741 10.8498 117.708 10.6567 117.642 10.4964C117.576 10.3361 117.484 10.2049 117.366 10.1028C117.256 9.99352 117.124 9.917 116.969 9.87328C116.822 9.82226 116.664 9.79675 116.495 9.79675C116.326 9.79675 116.168 9.82226 116.021 9.87328C115.874 9.92429 115.741 10.0008 115.624 10.1028C115.506 10.2049 115.414 10.3361 115.348 10.4964C115.282 10.6494 115.249 10.8316 115.249 11.043V11.2835H117.741V11.0758ZM123.569 12.8576C123.569 13.1127 123.514 13.3386 123.404 13.5354C123.293 13.7322 123.143 13.9034 122.952 14.0492C122.76 14.1877 122.532 14.2933 122.268 14.3662C122.003 14.4391 121.713 14.4755 121.396 14.4755C121.014 14.4755 120.643 14.4282 120.282 14.3334C119.922 14.2314 119.558 14.0419 119.191 13.765L119.709 13.0763C119.981 13.3022 120.26 13.4589 120.547 13.5463C120.834 13.6265 121.146 13.6666 121.485 13.6666C121.617 13.6666 121.749 13.652 121.882 13.6229C122.021 13.5864 122.143 13.5354 122.246 13.4698C122.356 13.4042 122.444 13.3204 122.51 13.2184C122.577 13.1091 122.61 12.9815 122.61 12.8358C122.61 12.6026 122.525 12.4349 122.356 12.3329C122.187 12.2309 121.974 12.158 121.716 12.1143C121.437 12.0706 121.157 12.0232 120.878 11.9722C120.606 11.9139 120.36 11.8301 120.139 11.7207C119.919 11.6114 119.738 11.4657 119.599 11.2835C119.459 11.1013 119.389 10.8608 119.389 10.562C119.389 10.3142 119.441 10.0883 119.544 9.88421C119.646 9.68015 119.79 9.50888 119.974 9.37042C120.157 9.23195 120.367 9.12627 120.602 9.0534C120.845 8.97323 121.106 8.93315 121.385 8.93315C121.797 8.93315 122.161 8.97687 122.477 9.06433C122.793 9.14449 123.099 9.29025 123.393 9.5016L122.918 10.2012C122.661 10.0409 122.411 9.92793 122.168 9.86234C121.926 9.79675 121.665 9.76396 121.385 9.76396C121.062 9.76396 120.801 9.84048 120.602 9.99352C120.404 10.1393 120.305 10.3251 120.305 10.551C120.305 10.7405 120.385 10.8826 120.547 10.9774C120.709 11.0721 120.911 11.1486 121.154 11.2069C121.396 11.258 121.657 11.309 121.937 11.36C122.216 11.4037 122.477 11.4802 122.72 11.5896C122.963 11.6989 123.165 11.8519 123.327 12.0487C123.488 12.2455 123.569 12.5151 123.569 12.8576ZM80.5629 25.2506C80.5629 25.564 80.5004 25.8445 80.3754 26.0923C80.2577 26.3328 80.0923 26.5369 79.879 26.7045C79.6732 26.8721 79.4342 26.9997 79.1622 27.0871C78.8901 27.1746 78.5997 27.2183 78.2909 27.2183C77.9747 27.2183 77.6806 27.1746 77.4085 27.0871C77.1365 26.9997 76.8975 26.8721 76.6916 26.7045C76.4931 26.5369 76.335 26.3328 76.2174 26.0923C76.0997 25.8445 76.0409 25.564 76.0409 25.2506V23.6764C76.0409 23.363 76.0997 23.0861 76.2174 22.8456C76.3424 22.5978 76.5041 22.3901 76.7027 22.2225C76.9085 22.0476 77.1475 21.9164 77.4195 21.8289C77.699 21.7342 77.9931 21.6868 78.3019 21.6868C78.6328 21.6868 78.9342 21.7342 79.2063 21.8289C79.4857 21.9164 79.7246 22.0476 79.9232 22.2225C80.129 22.3901 80.2871 22.5978 80.3974 22.8456C80.5077 23.0861 80.5629 23.363 80.5629 23.6764V25.2506ZM79.6254 23.8404C79.6254 23.6072 79.5849 23.4104 79.5041 23.2501C79.4232 23.0825 79.3166 22.9476 79.1842 22.8456C79.0592 22.7436 78.9195 22.6707 78.7651 22.627C78.6107 22.5832 78.46 22.5614 78.3129 22.5614C78.1585 22.5614 78.0041 22.5832 77.8497 22.627C77.6953 22.6707 77.5519 22.7436 77.4195 22.8456C77.2946 22.9476 77.1916 23.0825 77.1107 23.2501C77.0299 23.4104 76.9894 23.6072 76.9894 23.8404V25.0647C76.9894 25.2979 77.0225 25.4984 77.0887 25.666C77.1622 25.8263 77.2578 25.9575 77.3754 26.0595C77.4931 26.1616 77.6328 26.2344 77.7945 26.2782C77.9563 26.3219 78.1291 26.3438 78.3129 26.3438C78.46 26.3438 78.6107 26.3219 78.7651 26.2782C78.9195 26.2344 79.0592 26.1616 79.1842 26.0595C79.3166 25.9575 79.4232 25.8263 79.5041 25.666C79.5849 25.4984 79.6254 25.2979 79.6254 25.0647V23.8404ZM84.146 21.6868C84.6828 21.6868 85.1019 21.8545 85.4034 22.1897C85.7048 22.5249 85.8556 23.0023 85.8556 23.6217V27.1636H84.9071V23.742C84.9071 23.3193 84.8151 23.0241 84.6313 22.8565C84.4475 22.6816 84.2159 22.5978 83.9365 22.6051C83.7159 22.6051 83.4549 22.6634 83.1534 22.78C82.8593 22.8893 82.5725 23.0314 82.2931 23.2063V27.1636H81.3446V21.7415H82.1829L82.2931 22.3427C82.5284 22.197 82.738 22.0804 82.9218 21.9929C83.113 21.9055 83.2821 21.8399 83.4291 21.7961C83.5762 21.7524 83.7086 21.7233 83.8262 21.7087C83.9438 21.6941 84.0505 21.6868 84.146 21.6868ZM92.5203 26.6389C92.0865 26.8794 91.7299 27.0361 91.4505 27.109C91.1784 27.1746 90.9321 27.2074 90.7115 27.2074C90.1823 27.2074 89.7595 27.0616 89.4433 26.7701C89.1272 26.4786 88.9691 26.0814 88.9691 25.5785C88.9691 25.2797 89.0353 25.0283 89.1676 24.8242C89.3073 24.6202 89.4764 24.4562 89.6749 24.3323C89.8808 24.2011 90.0977 24.11 90.3255 24.059C90.5608 24.0007 90.7703 23.9716 90.9541 23.9716H92.5534V23.5562C92.5534 23.1772 92.4468 22.9148 92.2335 22.7691C92.0203 22.616 91.7152 22.5395 91.3181 22.5395C91.1269 22.5395 90.8916 22.5687 90.6122 22.627C90.3402 22.678 90.0646 22.8164 89.7852 23.0424L89.322 22.3318C89.6749 22.0622 90.0316 21.8872 90.3917 21.8071C90.7519 21.7269 91.0865 21.6868 91.3953 21.6868C92.1085 21.6868 92.6343 21.8435 92.9725 22.1569C93.3181 22.463 93.4908 22.9367 93.4908 23.578V27.1636H92.6637L92.5534 26.6608L92.5203 26.6389ZM92.5534 24.7477H91.1086C90.9909 24.7477 90.8622 24.7586 90.7225 24.7805C90.5902 24.7951 90.4652 24.8315 90.3475 24.8898C90.2299 24.9408 90.1308 25.0247 90.0499 25.1413C89.9764 25.2506 89.9396 25.3963 89.9396 25.5785C89.9396 25.8409 90.0279 26.0377 90.2043 26.1688C90.388 26.3 90.6196 26.3656 90.899 26.3656C91.0387 26.3656 91.1821 26.3474 91.3291 26.311C91.4835 26.2672 91.6306 26.2162 91.7703 26.1579C91.9174 26.0996 92.0571 26.0377 92.1894 25.9721C92.3218 25.8992 92.4431 25.8336 92.5534 25.7753V24.7477ZM98.0137 27.1636L97.9034 26.5842C97.6755 26.7227 97.4733 26.8357 97.2968 26.9231C97.1277 27.0033 96.9733 27.0652 96.8336 27.109C96.7012 27.1527 96.5799 27.1818 96.4696 27.1964C96.3667 27.211 96.2674 27.2183 96.1718 27.2183C95.591 27.2183 95.1388 27.0507 94.8153 26.7154C94.4917 26.3802 94.33 25.9028 94.33 25.2834V21.7415H95.2785V25.185C95.2785 25.6077 95.3704 25.9065 95.5542 26.0814C95.7454 26.249 95.9807 26.3292 96.2601 26.3219C96.4807 26.3219 96.7343 26.2636 97.0211 26.147C97.3152 26.0304 97.6093 25.8664 97.9034 25.6551V21.7415H98.8519V27.1636H98.0137ZM103.075 27.0324C102.862 27.1053 102.638 27.1527 102.402 27.1746C102.174 27.2037 102.005 27.2183 101.895 27.2183C101.314 27.2183 100.895 27.0871 100.638 26.8247C100.38 26.5624 100.252 26.1251 100.252 25.5129V22.5832H99.4797V21.7415H100.274L100.494 20.4843H101.189V21.7415H102.711V22.5832H101.189V25.2287C101.189 25.4473 101.208 25.6295 101.244 25.7753C101.288 25.9138 101.344 26.0267 101.41 26.1142C101.483 26.1943 101.572 26.249 101.674 26.2782C101.777 26.3073 101.895 26.3219 102.027 26.3219C102.152 26.3219 102.288 26.3146 102.435 26.3C102.59 26.2782 102.752 26.2563 102.921 26.2344L103.075 27.0324ZM107.986 25.2506C107.986 25.564 107.923 25.8445 107.798 26.0923C107.681 26.3328 107.515 26.5369 107.302 26.7045C107.096 26.8721 106.857 26.9997 106.585 27.0871C106.313 27.1746 106.023 27.2183 105.714 27.2183C105.398 27.2183 105.104 27.1746 104.832 27.0871C104.56 26.9997 104.321 26.8721 104.115 26.7045C103.916 26.5369 103.758 26.3328 103.64 26.0923C103.523 25.8445 103.464 25.564 103.464 25.2506V23.6764C103.464 23.363 103.523 23.0861 103.64 22.8456C103.765 22.5978 103.927 22.3901 104.126 22.2225C104.332 22.0476 104.571 21.9164 104.843 21.8289C105.122 21.7342 105.416 21.6868 105.725 21.6868C106.056 21.6868 106.357 21.7342 106.629 21.8289C106.909 21.9164 107.148 22.0476 107.346 22.2225C107.552 22.3901 107.71 22.5978 107.82 22.8456C107.931 23.0861 107.986 23.363 107.986 23.6764V25.2506ZM107.048 23.8404C107.048 23.6072 107.008 23.4104 106.927 23.2501C106.846 23.0825 106.74 22.9476 106.607 22.8456C106.482 22.7436 106.343 22.6707 106.188 22.627C106.034 22.5832 105.883 22.5614 105.736 22.5614C105.582 22.5614 105.427 22.5832 105.273 22.627C105.118 22.6707 104.975 22.7436 104.843 22.8456C104.718 22.9476 104.615 23.0825 104.534 23.2501C104.453 23.4104 104.412 23.6072 104.412 23.8404V25.0647C104.412 25.2979 104.446 25.4984 104.512 25.666C104.585 25.8263 104.681 25.9575 104.798 26.0595C104.916 26.1616 105.056 26.2344 105.218 26.2782C105.379 26.3219 105.552 26.3438 105.736 26.3438C105.883 26.3438 106.034 26.3219 106.188 26.2782C106.343 26.2344 106.482 26.1616 106.607 26.0595C106.74 25.9575 106.846 25.8263 106.927 25.666C107.008 25.4984 107.048 25.2979 107.048 25.0647V23.8404ZM109.661 21.7524L109.772 22.3209C110.206 22.0658 110.551 21.8982 110.808 21.818C111.073 21.7378 111.305 21.6978 111.503 21.6978C112.04 21.6978 112.478 21.8545 112.816 22.1678C113.161 22.4812 113.334 22.9695 113.334 23.6327V25.2943C113.334 25.9138 113.161 26.3911 112.816 26.7264C112.478 27.0616 112.011 27.2292 111.415 27.2292C111.217 27.2292 110.985 27.2074 110.72 27.1636C110.455 27.1272 110.139 27.0361 109.772 26.8903V29.3281H108.834V21.7524H109.661ZM109.772 26.0049C110.11 26.1433 110.397 26.2344 110.632 26.2782C110.867 26.3219 111.099 26.3438 111.327 26.3438C111.474 26.3438 111.61 26.3292 111.735 26.3C111.867 26.2636 111.981 26.2053 112.077 26.1251C112.172 26.0377 112.246 25.9247 112.297 25.7862C112.356 25.6405 112.386 25.4619 112.386 25.2506V23.6983C112.386 23.2829 112.297 22.9986 112.121 22.8456C111.944 22.6853 111.709 22.6051 111.415 22.6051C111.312 22.6051 111.191 22.6233 111.051 22.6598C110.911 22.6962 110.764 22.7436 110.61 22.8019C110.463 22.8602 110.316 22.9294 110.169 23.0096C110.022 23.0825 109.889 23.159 109.772 23.2391V26.0049ZM115.451 20.1017C115.451 20.2621 115.392 20.4005 115.274 20.5171C115.157 20.6337 115.017 20.692 114.855 20.692C114.701 20.692 114.565 20.6337 114.447 20.5171C114.329 20.4005 114.271 20.2621 114.271 20.1017C114.271 19.9414 114.329 19.8066 114.447 19.6973C114.565 19.5807 114.701 19.5223 114.855 19.5223C115.017 19.5223 115.157 19.5807 115.274 19.6973C115.392 19.8066 115.451 19.9414 115.451 20.1017ZM114.392 27.1636V21.7415H115.329V27.1636H114.392ZM117.74 25.7206C117.74 26.0049 117.803 26.1834 117.928 26.2563C118.06 26.3219 118.277 26.3474 118.578 26.3328L118.601 27.1855C118.498 27.2001 118.398 27.211 118.303 27.2183C118.215 27.2256 118.13 27.2292 118.049 27.2292C117.792 27.2292 117.582 27.2001 117.42 27.1418C117.266 27.0762 117.141 26.9851 117.045 26.8685C116.95 26.7446 116.884 26.5988 116.847 26.4312C116.817 26.2563 116.803 26.0595 116.803 25.8409V19.3365H117.74V25.7206ZM123.777 25.2506C123.777 25.564 123.714 25.8445 123.589 26.0923C123.472 26.3328 123.306 26.5369 123.093 26.7045C122.887 26.8721 122.648 26.9997 122.376 27.0871C122.104 27.1746 121.814 27.2183 121.505 27.2183C121.189 27.2183 120.895 27.1746 120.623 27.0871C120.35 26.9997 120.112 26.8721 119.906 26.7045C119.707 26.5369 119.549 26.3328 119.431 26.0923C119.314 25.8445 119.255 25.564 119.255 25.2506V23.6764C119.255 23.363 119.314 23.0861 119.431 22.8456C119.556 22.5978 119.718 22.3901 119.917 22.2225C120.123 22.0476 120.361 21.9164 120.634 21.8289C120.913 21.7342 121.207 21.6868 121.516 21.6868C121.847 21.6868 122.148 21.7342 122.42 21.8289C122.7 21.9164 122.939 22.0476 123.137 22.2225C123.343 22.3901 123.501 22.5978 123.611 22.8456C123.722 23.0861 123.777 23.363 123.777 23.6764V25.2506ZM122.839 23.8404C122.839 23.6072 122.799 23.4104 122.718 23.2501C122.637 23.0825 122.531 22.9476 122.398 22.8456C122.273 22.7436 122.134 22.6707 121.979 22.627C121.825 22.5832 121.674 22.5614 121.527 22.5614C121.373 22.5614 121.218 22.5832 121.064 22.627C120.909 22.6707 120.766 22.7436 120.634 22.8456C120.509 22.9476 120.406 23.0825 120.325 23.2501C120.244 23.4104 120.203 23.6072 120.203 23.8404V25.0647C120.203 25.2979 120.237 25.4984 120.303 25.666C120.376 25.8263 120.472 25.9575 120.589 26.0595C120.707 26.1616 120.847 26.2344 121.009 26.2782C121.17 26.3219 121.343 26.3438 121.527 26.3438C121.674 26.3438 121.825 26.3219 121.979 26.2782C122.134 26.2344 122.273 26.1616 122.398 26.0595C122.531 25.9575 122.637 25.8263 122.718 25.666C122.799 25.4984 122.839 25.2979 122.839 25.0647V23.8404ZM128 27.0324C127.787 27.1053 127.563 27.1527 127.327 27.1746C127.099 27.2037 126.93 27.2183 126.82 27.2183C126.239 27.2183 125.82 27.0871 125.563 26.8247C125.305 26.5624 125.177 26.1251 125.177 25.5129V22.5832H124.405V21.7415H125.199L125.419 20.4843H126.114V21.7415H127.636V22.5832H126.114V25.2287C126.114 25.4473 126.133 25.6295 126.169 25.7753C126.213 25.9138 126.269 26.0267 126.335 26.1142C126.408 26.1943 126.496 26.249 126.599 26.2782C126.702 26.3073 126.82 26.3219 126.952 26.3219C127.077 26.3219 127.213 26.3146 127.36 26.3C127.515 26.2782 127.677 26.2563 127.846 26.2344L128 27.0324Z" fill="#BFBFC0"/>
<path d="M0 15.1221C0 13.0593 0.589259 11.4439 1.76777 10.2757C2.97136 9.08281 4.55107 8.48633 6.50691 8.48633C7.15886 8.48633 7.93616 8.56089 8.8389 8.71001C9.76663 8.83427 10.7571 9.10768 11.8102 9.53019V0.47113H15.7971V27.1636H12.1863L11.8102 25.3369C10.5314 26.1073 9.44063 26.6417 8.53799 26.94C7.66034 27.2134 6.89557 27.35 6.24362 27.35C4.31286 27.35 2.7833 26.8157 1.65493 25.747C0.551641 24.6534 0 22.9634 0 20.6769V15.1221ZM3.9869 20.3787C3.9869 21.6213 4.25018 22.4787 4.77675 22.951C5.3284 23.3984 6.01795 23.622 6.84542 23.622C7.1714 23.622 7.53498 23.5723 7.93616 23.4729C8.36244 23.3735 8.80122 23.2368 9.25258 23.0629C9.70395 22.8889 10.1427 22.69 10.569 22.4663C11.0204 22.2427 11.4341 22.0066 11.8102 21.7581V13.2954C10.9326 12.9475 10.1051 12.6865 9.32786 12.5125C8.57558 12.3138 7.84839 12.2143 7.14631 12.2143C6.2687 12.2143 5.51645 12.4753 4.88959 12.9972C4.28779 13.5192 3.9869 14.4015 3.9869 15.6441V20.3787ZM33.2377 20.6397C33.2377 21.7332 33.012 22.7025 32.5607 23.5475C32.1345 24.3925 31.5451 25.1008 30.793 25.6724C30.0658 26.2192 29.2257 26.6417 28.2729 26.94C27.3201 27.2134 26.3296 27.35 25.3015 27.35C24.2484 27.35 23.2328 27.2134 22.2549 26.94C21.3021 26.6417 20.4621 26.2192 19.735 25.6724C19.0329 25.1008 18.4686 24.3925 18.0423 23.5475C17.6162 22.7025 17.403 21.7332 17.403 20.6397V15.2713C17.403 14.1777 17.6162 13.2084 18.0423 12.3634C18.4937 11.5184 19.083 10.8101 19.8101 10.2385C20.5373 9.66683 21.3774 9.23193 22.3302 8.93369C23.283 8.63545 24.286 8.48633 25.3391 8.48633C26.4675 8.48633 27.5081 8.63545 28.4609 8.93369C29.4139 9.23193 30.2413 9.67931 30.9434 10.2757C31.6705 10.8474 32.2347 11.5557 32.6359 12.4008C33.0371 13.2457 33.2377 14.215 33.2377 15.3086V20.6397ZM29.2885 15.9796C29.2885 15.2837 29.163 14.6996 28.9123 14.2275C28.6867 13.7303 28.3858 13.3327 28.0097 13.0345C27.6335 12.7363 27.2072 12.525 26.7308 12.4008C26.2544 12.2516 25.7905 12.177 25.3391 12.177C24.8878 12.177 24.4239 12.2516 23.9475 12.4008C23.4711 12.525 23.0448 12.7363 22.6687 13.0345C22.2926 13.3327 21.9791 13.7303 21.7284 14.2275C21.5027 14.6996 21.3899 15.2837 21.3899 15.9796V19.894C21.3899 21.2858 21.7786 22.2675 22.5558 22.8391C23.3332 23.4108 24.2609 23.6966 25.3391 23.6966C25.7905 23.6966 26.2544 23.6344 26.7308 23.5101C27.2072 23.361 27.6335 23.1374 28.0097 22.8391C28.3858 22.5409 28.6867 22.1557 28.9123 21.6834C29.163 21.1864 29.2885 20.5899 29.2885 19.894V15.9796ZM38.7938 19.223V20.155C38.7938 20.8012 38.9066 21.3603 39.1323 21.8326C39.3579 22.28 39.6463 22.6527 39.9973 22.951C40.3735 23.2244 40.7997 23.4356 41.2761 23.5847C41.7776 23.709 42.2917 23.7711 42.8183 23.7711C43.3949 23.7711 44.0845 23.6717 44.8869 23.4729C45.7144 23.2741 46.5293 22.8142 47.3317 22.0936C47.7329 22.5657 48.1216 23.0255 48.4977 23.4729C48.8988 23.8954 49.2875 24.3428 49.6637 24.8149C48.6105 25.834 47.4947 26.5175 46.3162 26.8654C45.1627 27.1885 43.9968 27.35 42.8183 27.35C41.74 27.35 40.712 27.2134 39.7341 26.94C38.7812 26.6666 37.9286 26.2565 37.1764 25.7097C36.4492 25.1381 35.8725 24.4298 35.4462 23.5847C35.02 22.7397 34.8068 21.7456 34.8068 20.6023V15.7559C34.8068 14.6375 34.9949 13.631 35.3711 12.7363C35.7722 11.8415 36.3239 11.0835 37.026 10.4622C37.7281 9.84083 38.543 9.36858 39.4708 9.04555C40.3985 8.69758 41.4141 8.52361 42.5174 8.52361C43.6458 8.52361 44.6864 8.68516 45.6392 9.00829C46.592 9.33132 47.407 9.80357 48.084 10.4249C48.7861 11.0214 49.3251 11.7545 49.7013 12.6244C50.0774 13.4943 50.2654 14.4885 50.2654 15.6068V19.223H38.7938ZM46.241 15.8305C46.241 14.5381 45.8774 13.6061 45.1502 13.0345C44.423 12.438 43.558 12.1398 42.555 12.1398C41.552 12.1398 40.6743 12.4504 39.9221 13.0718C39.195 13.6682 38.8314 14.5754 38.8314 15.7932V16.3897H46.241V15.8305ZM62.9452 12.5872C61.2903 12.7363 59.9112 13.0097 58.8079 13.4073C57.7296 13.8049 56.827 14.2275 56.0998 14.6748V27.1636H52.1128V8.67273H55.7237L56.0622 11.3941H56.0998C56.4258 11.0711 56.8395 10.7356 57.341 10.3876C57.8676 10.0397 58.4317 9.72896 59.0335 9.45558C59.6604 9.15742 60.2998 8.92126 60.9518 8.74729C61.6288 8.54846 62.2933 8.44905 62.9452 8.44905V12.5872ZM63.147 27.3873C62.3698 27.3873 61.7428 27.1387 61.2665 26.6417C60.8151 26.1198 60.5895 25.4861 60.5895 24.7404C60.5895 24.0943 60.8151 23.5226 61.2665 23.0255C61.7428 22.5036 62.3573 22.2427 63.1094 22.2427C63.9118 22.2427 64.5512 22.5036 65.0277 23.0255C65.5041 23.5226 65.7423 24.0943 65.7423 24.7404C65.7423 25.4612 65.5041 26.0825 65.0277 26.6045C64.5763 27.1264 63.9495 27.3873 63.147 27.3873Z" fill="#999999"/>
</svg>
