<svg width="42" height="48" viewBox="0 0 42 48" fill="none" xmlns="http://www.w3.org/2000/svg">
<path d="M36.9653 16.1852C36.0432 16.1852 35.1878 16.4778 34.4831 16.9749C34.0122 15.0561 32.2969 13.6297 30.2582 13.6297C29.2347 13.6297 28.2932 13.99 27.5492 14.5908C26.8806 13.025 25.3405 11.9261 23.5512 11.9261C22.6845 11.9261 21.8769 12.1848 21.1977 12.6286V4.40744C21.1977 1.97713 19.2447 0 16.8443 0C14.4436 0 12.4908 1.97713 12.4908 4.40744V26.7974L9.97852 24.434C8.84131 23.2911 7.33503 22.6625 5.73327 22.6625C5.7282 22.6625 5.72312 22.6625 5.71804 22.6625C4.1042 22.6665 2.58928 23.3081 1.45249 24.469C0.420604 25.5226 0.424971 27.2328 1.46203 28.2814L16.3022 43.2808C19.0255 46.2804 22.8872 48.0002 26.9048 48.0002C34.8528 48.0002 41.3188 41.4374 41.3188 33.3705V25.7038V24.8519V20.5927C41.3188 18.1623 39.3658 16.1852 36.9653 16.1852Z" fill="#F7E1B3"/>
<path d="M36.9653 16.1852C36.0432 16.1852 35.1878 16.4778 34.4831 16.9749C34.0122 15.0561 32.2969 13.6297 30.2582 13.6297C29.2347 13.6297 28.2932 13.99 27.5492 14.5908C26.8806 13.025 25.3405 11.9261 23.5512 11.9261C22.6845 11.9261 21.8769 12.1848 21.1977 12.6286V4.40744C21.1977 1.97713 19.2447 0 16.8443 0C14.4436 0 12.4908 1.97713 12.4908 4.40744V26.7974L9.97852 24.434C8.84131 23.2911 7.33503 22.6625 5.73327 22.6625C5.7282 22.6625 5.72312 22.6625 5.71804 22.6625C4.1042 22.6665 2.58928 23.3081 1.45249 24.469C0.420604 25.5226 0.424971 27.2328 1.46203 28.2814L16.3022 43.2808C19.0255 46.2804 22.8872 48.0002 26.9048 48.0002C34.8528 48.0002 41.3188 41.4374 41.3188 33.3705V25.7038V24.8519V20.5927C41.3188 18.1623 39.3658 16.1852 36.9653 16.1852ZM39.3187 24.8518V25.7037V33.3704C39.3187 40.3344 33.7498 46.0001 26.9047 46.0001C23.4378 46.0001 20.1038 44.509 17.7576 41.9092C17.751 41.9018 17.7438 41.8956 17.7371 41.8885C17.7332 41.8844 17.7298 41.88 17.7259 41.8759L2.88382 26.8747C2.6101 26.598 2.60899 26.1464 2.88138 25.8683C3.64016 25.0933 4.64939 24.6651 5.72302 24.6625C5.72647 24.6625 5.72962 24.6625 5.73307 24.6625C6.80263 24.6625 7.80984 25.0853 8.56983 25.8537C8.57826 25.8623 8.58679 25.8706 8.59553 25.8788L12.8055 29.8395C13.0962 30.1129 13.5214 30.1872 13.8876 30.0291C14.2537 29.8708 14.4908 29.51 14.4908 29.1111V4.40744C14.4908 3.08001 15.5465 1.99998 16.8443 1.99998C18.142 1.99998 19.1977 3.08001 19.1977 4.40744V16.3333V18.8888V19.7407C19.1977 20.293 19.6455 20.7407 20.1977 20.7407C20.7499 20.7407 21.1977 20.2929 21.1977 19.7407V18.8888V16.3333C21.1977 15.0059 22.2534 13.9259 23.5512 13.9259C24.849 13.9259 25.9047 15.0059 25.9047 16.3333V18.037V21.4445C25.9047 21.9968 26.3525 22.4445 26.9047 22.4445C27.4569 22.4445 27.9047 21.9967 27.9047 21.4445V18.037C27.9047 16.7096 28.9605 15.6296 30.2582 15.6296C31.5559 15.6296 32.6117 16.7096 32.6117 18.037V23.1481C32.6117 23.7004 33.0595 24.1481 33.6117 24.1481C34.1639 24.1481 34.6117 23.7003 34.6117 23.1481V20.5926C34.6117 19.2651 35.6674 18.1851 36.9652 18.1851C38.2629 18.1851 39.3186 19.2651 39.3186 20.5926V24.8518H39.3187Z" fill="#252525"/>
</svg>
