<svg width="198" height="30" viewBox="0 0 198 30" fill="none" xmlns="http://www.w3.org/2000/svg">
<g clip-path="url(#clip0_44_140)">
<path d="M18.3158 12.2369C20.2895 10.1053 23.0526 8.76318 26.1316 8.76318C33 8.76318 36.7105 13.5 36.7105 19.3421V29.4474C36.7105 29.6842 36.4737 29.8421 36.3158 29.8421H31.5789C31.3421 29.8421 31.1842 29.6842 31.1842 29.4474V19.3421C31.1842 15.7106 28.7368 14.6842 26.1316 14.6842C23.6053 14.6842 21.0789 15.7106 21.0789 19.3421V29.4474C21.0789 29.6842 20.8421 29.8421 20.6842 29.8421H16.0263C15.7895 29.8421 15.6316 29.6842 15.6316 29.4474V19.3421C15.6316 15.7106 13.1842 14.6842 10.5789 14.6842C8.05263 14.6842 5.52632 15.7106 5.52632 19.3421V29.4474C5.52632 29.6842 5.28947 29.8421 5.13158 29.8421H0.394737C0.157895 29.8421 0 29.6842 0 29.4474V19.3421C0 13.5 3.71053 8.76318 10.5 8.76318C13.6579 8.76318 16.4211 10.1053 18.3158 12.2369ZM61.1842 19.4211C61.1842 25.3421 57.0789 30 50.1316 30C43.1842 30 39.0789 25.3421 39.0789 19.4211C39.0789 13.4211 43.1842 8.84213 50.1316 8.84213C57.0789 8.76318 61.1842 13.5 61.1842 19.4211ZM55.8947 19.4211C55.8947 16.5 54 14.0527 50.1316 14.0527C46.0263 14.0527 44.3684 16.5 44.3684 19.4211C44.3684 22.3421 46.0263 24.7895 50.1316 24.7895C54.1579 24.7106 55.8947 22.3421 55.8947 19.4211Z" fill="#999999"/>
<path d="M81.9474 12.2369C83.9211 10.1053 86.6842 8.76318 89.7632 8.76318C96.6316 8.76318 100.342 13.5 100.342 19.3421V29.4474C100.342 29.6842 100.105 29.8421 99.9474 29.8421H95.2895C95.0526 29.8421 94.8947 29.6842 94.8947 29.4474V19.3421C94.8947 15.7106 92.4474 14.6842 89.8421 14.6842C87.3158 14.6842 84.7895 15.7106 84.7895 19.3421V29.4474C84.7895 29.6842 84.5526 29.8421 84.3947 29.8421H79.7368C79.5 29.8421 79.3421 29.6842 79.3421 29.4474V19.3421C79.3421 15.7106 76.8947 14.6842 74.2895 14.6842C71.7632 14.6842 69.2368 15.7106 69.2368 19.3421V29.4474C69.2368 29.6842 69 29.8421 68.8421 29.8421H64.1842C63.9474 29.8421 63.7895 29.6842 63.7895 29.4474V19.3421C63.7895 13.5 67.5 8.76318 74.2895 8.76318C77.2895 8.76318 80.0526 10.1053 81.9474 12.2369ZM124.816 19.4211C124.816 25.3421 120.711 30 113.763 30C106.816 30 102.711 25.3421 102.711 19.4211C102.711 13.4211 106.816 8.84213 113.763 8.84213C120.632 8.76318 124.816 13.5 124.816 19.4211ZM119.526 19.4211C119.526 16.5 117.711 14.0527 113.763 14.0527C109.658 14.0527 108 16.5 108 19.4211C108 22.3421 109.658 24.7895 113.763 24.7895C117.789 24.7106 119.526 22.3421 119.526 19.4211ZM127.263 19.3421V29.4474C127.263 29.6842 127.421 29.8421 127.658 29.8421H132.316C132.553 29.8421 132.711 29.6842 132.711 29.4474V19.3421C132.711 15.7106 135.158 14.6842 137.763 14.6842C140.368 14.6842 142.816 15.7106 142.816 19.3421V29.4474C142.816 29.6842 142.974 29.8421 143.211 29.8421H147.868C148.105 29.8421 148.263 29.6842 148.263 29.4474V19.3421C148.263 13.5 144.711 8.76318 137.684 8.76318C130.816 8.76318 127.263 13.5 127.263 19.3421Z" fill="#999999"/>
<path d="M172.421 0H167.763C167.526 0 167.368 0.157895 167.368 0.394737V10.6579C166.342 9.71053 163.974 8.76316 161.842 8.76316C154.895 8.76316 150.789 13.4211 150.789 19.3421C150.789 25.2632 154.895 29.9211 161.842 29.9211C168.711 29.9211 172.895 25.8158 172.895 18.3947V0.315789C172.816 0.157895 172.658 0 172.421 0ZM161.763 24.7105C157.658 24.7105 156 22.3421 156 19.3421C156 16.4211 157.658 13.9737 161.763 13.9737C165.632 13.9737 167.526 16.3421 167.526 19.3421C167.526 22.3421 165.789 24.7105 161.763 24.7105ZM186.316 8.76316C179.368 8.76316 175.263 13.4211 175.263 19.3421C175.263 25.2632 179.368 29.9211 186.316 29.9211C193.263 29.9211 197.368 25.2632 197.368 19.3421C197.368 13.5 193.184 8.76316 186.316 8.76316ZM186.316 24.7105C182.211 24.7105 180.553 22.2632 180.553 19.3421C180.553 16.4211 182.211 13.9737 186.316 13.9737C190.184 13.9737 192.079 16.4211 192.079 19.3421C192.079 22.3421 190.342 24.7105 186.316 24.7105Z" fill="#ACACAC"/>
</g>
<defs>
<clipPath id="clip0_44_140">
<rect width="197.368" height="30" fill="white"/>
</clipPath>
</defs>
</svg>
