<svg width="60" height="64" viewBox="0 0 60 64" fill="none" xmlns="http://www.w3.org/2000/svg">
<g clip-path="url(#clip0_242_42)">
<path fill-rule="evenodd" clip-rule="evenodd" d="M7 38H18L29.5 50L41 38H52L29.6907 63.8961L7 38Z" fill="#CCA24B"/>
<path fill-rule="evenodd" clip-rule="evenodd" d="M6.97937 25V12L18.5567 0L29.5 12L40.8247 0L52 12V25H41V15L29.5 25L18 14V25H6.97937Z" fill="#CCA24B"/>
<path d="M53.7051 34.3505L54.5843 32.6865C54.8703 32.9385 55.2169 33.1511 55.6243 33.324C56.0317 33.4896 56.4534 33.5725 56.8895 33.5725C57.447 33.5725 57.7258 33.414 57.7258 33.0971C57.7258 32.9531 57.6507 32.8234 57.5006 32.7081C57.3505 32.5857 57.0575 32.4669 56.6214 32.3515C55.6779 32.0922 55.0167 31.7537 54.6379 31.3358C54.2662 30.9109 54.0804 30.4174 54.0804 29.8555C54.0804 29.2432 54.3305 28.6994 54.8309 28.2239C55.3383 27.7412 56.046 27.5 56.9538 27.5C57.4398 27.5 57.8901 27.5613 58.3047 27.6837C58.7264 27.8061 59.1268 27.9754 59.5055 28.1915L58.7229 29.8447C58.201 29.499 57.5936 29.3261 56.9002 29.3261C56.5785 29.3261 56.3569 29.3693 56.2354 29.4557C56.114 29.5422 56.0532 29.6467 56.0532 29.7691C56.0532 29.8844 56.1317 29.9995 56.2891 30.1149C56.4464 30.2229 56.7787 30.3453 57.2862 30.4822C58.2225 30.7343 58.8837 31.0657 59.2697 31.4763C59.6629 31.8869 59.8594 32.3875 59.8594 32.9782C59.8594 33.6554 59.5948 34.2281 59.066 34.6963C58.5441 35.1574 57.7901 35.3878 56.8037 35.3878C55.653 35.3878 54.62 35.042 53.7051 34.3505Z" fill="white"/>
<path d="M45.2363 35.2257V27.6621H46.4156L49.6321 31.3683V27.6621H51.6156V35.2257H50.4363L47.2198 31.5195V35.2257H45.2363Z" fill="white"/>
<path d="M35.6119 35.2257L38.4961 27.6621H40.3724L43.2565 35.2257H41.1229L40.7262 34.0804H38.0779L37.6705 35.2257H35.6119ZM38.6998 32.3515H40.1258L39.4181 30.3202L38.6998 32.3515Z" fill="white"/>
<path d="M27.8055 31.4439C27.8055 30.6803 27.9701 30.0033 28.2987 29.4125C28.6276 28.8218 29.0744 28.3571 29.6389 28.0186C30.2109 27.6729 30.8612 27.5 31.5903 27.5C32.1264 27.5 32.6196 27.5972 33.0699 27.7917C33.5202 27.9862 33.8847 28.2275 34.1635 28.5157L32.9412 30.0608C32.5697 29.7007 32.1408 29.5206 31.6546 29.5206C31.133 29.5206 30.7076 29.7007 30.3787 30.0608C30.0571 30.4139 29.8963 30.8748 29.8963 31.4439C29.8963 32.013 30.0536 32.4777 30.368 32.8378C30.6897 33.1908 31.1008 33.3672 31.601 33.3672C32.1229 33.3672 32.5981 33.18 33.027 32.8054L34.2171 34.3721C33.9241 34.6603 33.5488 34.9016 33.0913 35.0961C32.641 35.2905 32.1622 35.3878 31.6546 35.3878C30.5181 35.3878 29.5926 35.0169 28.8777 34.2749C28.1631 33.5328 27.8055 32.5892 27.8055 31.4439Z" fill="white"/>
<path d="M19.8331 35.2257V27.6621H22.9637C23.8787 27.6621 24.5756 27.9033 25.0544 28.386C25.5334 28.8687 25.7728 29.4917 25.7728 30.2553C25.7728 30.774 25.6513 31.2313 25.4082 31.6276C25.1653 32.0166 24.8115 32.3048 24.3468 32.492L26.0408 35.2257H23.7142L22.3954 32.7405H21.8165V35.2257H19.8331ZM22.8029 29.5206H21.8165V30.9901H22.8029C23.389 30.9901 23.682 30.7451 23.682 30.2553C23.682 29.7656 23.389 29.5206 22.8029 29.5206Z" fill="white"/>
<path d="M9.92438 31.4439C9.92438 30.2769 10.2818 29.3296 10.9965 28.6021C11.7113 27.8674 12.6119 27.5 13.6984 27.5C14.7849 27.5 15.6855 27.8674 16.4003 28.6021C17.115 29.3296 17.4724 30.2769 17.4724 31.4439C17.4724 32.6109 17.115 33.5617 16.4003 34.2965C15.6855 35.0239 14.7849 35.3878 13.6984 35.3878C12.6119 35.3878 11.7113 35.0239 10.9965 34.2965C10.2818 33.5617 9.92438 32.6109 9.92438 31.4439ZM12.0151 31.4439C12.0151 32.0417 12.1724 32.5317 12.4869 32.9134C12.8013 33.2881 13.2052 33.4753 13.6984 33.4753C14.1916 33.4753 14.5955 33.2881 14.9099 32.9134C15.2244 32.5317 15.3817 32.0417 15.3817 31.4439C15.3817 30.8461 15.2244 30.3598 14.9099 29.9852C14.5955 29.6035 14.1916 29.4125 13.6984 29.4125C13.2052 29.4125 12.8013 29.6035 12.4869 29.9852C12.1724 30.3598 12.0151 30.8461 12.0151 31.4439Z" fill="white"/>
<path d="M0.109009 35.2257V27.6621H1.44922L3.84015 31.0765L6.22036 27.6621H7.56057V35.2257H5.57704V31.7789L4.18323 33.7022H3.48632L2.0925 31.7789V35.2257H0.109009Z" fill="white"/>
<path d="M34.6212 40.3138V38.2774H35.1552V39.8134H35.9635V40.3138H34.6212Z" fill="white"/>
<path d="M32.0878 40.3138L32.8643 38.2774H33.3695L34.146 40.3138H33.5715L33.4647 40.0054H32.7517L32.6421 40.3138H32.0878ZM32.9192 39.5399H33.3031L33.1126 38.993L32.9192 39.5399Z" fill="white"/>
<path d="M30.853 40.3138V38.7778H30.3392V38.2774H31.9008V38.7778H31.387V40.3138H30.853Z" fill="white"/>
<path d="M29.2575 40.3138V38.2774H29.7915V40.3138H29.2575Z" fill="white"/>
<path d="M26.7885 39.2956C26.7885 38.9891 26.8866 38.736 27.0829 38.5363C27.2792 38.3345 27.5293 38.2338 27.8334 38.2338C27.9777 38.2338 28.1124 38.2581 28.2375 38.3065C28.3645 38.353 28.4666 38.4123 28.5435 38.4839L28.226 38.9232C28.1759 38.8806 28.1173 38.8457 28.0499 38.8185C27.9825 38.7894 27.9124 38.7749 27.8392 38.7749C27.6948 38.7749 27.5775 38.8224 27.487 38.9174C27.3965 39.0124 27.3513 39.1385 27.3513 39.2956C27.3513 39.4799 27.3936 39.6224 27.4784 39.7232C27.5649 39.8221 27.6814 39.8716 27.8276 39.8716C27.9373 39.8716 28.0384 39.8502 28.1307 39.8076V39.5749H27.7988V39.121H28.6359V40.0607C28.5359 40.144 28.4089 40.2149 28.2548 40.273C28.1029 40.3293 27.9499 40.3574 27.7959 40.3574C27.5014 40.3574 27.26 40.2595 27.0713 40.0636C26.8827 39.8658 26.7885 39.6098 26.7885 39.2956Z" fill="white"/>
<path d="M25.6779 40.3138V38.2774H26.2119V40.3138H25.6779Z" fill="white"/>
<path d="M23.299 40.3138V38.2774H24.0841C24.3959 38.2774 24.6431 38.3724 24.826 38.5625C25.0088 38.7505 25.1002 38.9949 25.1002 39.2956C25.1002 39.5963 25.0088 39.8415 24.826 40.0316C24.6431 40.2196 24.3959 40.3138 24.0841 40.3138H23.299ZM24.0408 38.7778H23.833V39.8134H24.0408C24.1891 39.8134 24.3082 39.7679 24.3987 39.6767C24.4911 39.5855 24.5373 39.4585 24.5373 39.2956C24.5373 39.1327 24.4911 39.0057 24.3987 38.9145C24.3082 38.8233 24.1891 38.7778 24.0408 38.7778Z" fill="white"/>
</g>
<defs>
<clipPath id="clip0_242_42">
<rect width="60" height="64" fill="white"/>
</clipPath>
</defs>
</svg>
