<svg width="201" height="42" viewBox="0 0 201 42" fill="none" xmlns="http://www.w3.org/2000/svg">
<path fill-rule="evenodd" clip-rule="evenodd" d="M36.316 41.4523C34.839 40.6641 33.2724 39.2403 28.4438 34.2871C13.8278 19.3001 0.784018 22.9709 1.40982 19.9833C2.03002 17.0433 15.4014 12.4961 27.9482 6.30245C40.7666 -0.0255468 40.7414 -0.0157465 43.3272 0.740254C46.046 1.53685 45.3166 0.710853 62.0536 21.9741C70.4004 32.5805 73.2704 36.1211 73.5392 36.1477C73.955 36.1897 81.4114 25.6337 81.4842 24.8987C81.5164 24.5893 75.5482 16.0157 73.5238 13.4607L72.6068 12.3043L71.7514 13.0435C70.7708 13.9291 69.8083 14.8346 68.8646 15.7595C67.1244 17.4535 65.8532 20.4145 64.8676 21.3161C63.8386 20.8569 63.5334 20.7659 63.4844 20.7617C63.0812 20.7211 61.1464 18.0079 61.3284 17.7391C62.0158 16.7311 71.064 9.03945 71.6184 8.98485C73.4384 8.80565 74.0824 9.91165 79.9596 18.3439C83.5044 23.4287 83.685 23.7983 83.6024 25.7821L83.559 26.8377L82.8842 28.0081C81.9252 29.6769 77.6706 36.3479 76.5254 37.9803C75.1646 39.9165 74.4268 40.3575 73.0128 40.0775C71.8256 39.8423 70.9506 38.8483 60.8902 26.3365C45.9928 7.80605 43.19 4.46565 42.6398 4.58045C41.5814 4.80445 19.439 16.3503 19.3984 16.7521C19.3424 17.3051 37.114 36.0931 38.493 36.9793C39.431 37.584 40.0288 36.7763 46.0068 31.5053C46.3708 31.1833 48.5184 29.2513 50.7808 27.2087C52.2629 25.8663 53.7507 24.5302 55.244 23.2005L55.594 22.9065L57.288 23.4273C58.506 24.8805 58.2736 26.1489 58.1084 26.3169C55.2692 29.1351 52.423 31.9449 49.5684 34.7491C43.3454 40.8517 42.1526 41.7113 39.6634 41.8876C38.1234 41.9968 37.0818 41.8611 36.3146 41.4537L36.316 41.4523Z" fill="url(#paint0_linear_44_129)"/>
<path fill-rule="evenodd" clip-rule="evenodd" d="M83.0256 23.6597C83.9286 24.7797 83.1404 26.4457 81.7026 26.4597L70.5054 26.5717C70.4413 26.5859 70.375 26.5865 70.3106 26.5734C70.2463 26.5604 70.1854 26.5341 70.1319 26.4961C70.0783 26.4582 70.0333 26.4094 69.9997 26.353C69.9661 26.2966 69.9447 26.2338 69.9369 26.1686C69.929 26.1035 69.9349 26.0374 69.9541 25.9746C69.9734 25.9119 70.0055 25.8538 70.0485 25.8042C70.0915 25.7546 70.1444 25.7146 70.2038 25.6867C70.2632 25.6587 70.3278 25.6436 70.3934 25.6421L81.2896 23.0661C81.6055 22.9914 81.9361 23.0074 82.2432 23.1125C82.5504 23.2175 82.8216 23.4072 83.0256 23.6597ZM20.9538 17.9673C21.057 18.2318 21.0961 18.5169 21.068 18.7994C21.04 19.0819 20.9455 19.3538 20.7923 19.5928C20.6392 19.8318 20.4317 20.0313 20.1867 20.1748C19.9418 20.3183 19.6664 20.4019 19.383 20.4187L-2.21899 21.7123C-3.14299 21.7669 -3.55319 20.5685 -2.78739 20.0463C-2.69612 19.985 -2.59467 19.9404 -2.48779 19.9147L18.102 14.9447C18.5254 14.8425 18.9715 14.8972 19.3577 15.0988C19.7438 15.3003 20.0438 15.6351 20.202 16.0409L20.9538 17.9673Z" fill="#999999"/>
<path fill-rule="evenodd" clip-rule="evenodd" d="M38.7618 41.1961C37.345 40.4401 35.8414 39.0723 31.206 34.3193C17.1766 19.9301 16.8616 19.5241 17.465 16.6583C18.06 13.8359 18.6872 13.4019 30.73 7.45607C43.036 1.38007 43.0108 1.38987 45.4916 2.11647C48.1026 2.87947 47.404 2.08707 63.4676 22.4977C71.4812 32.6799 74.235 36.0777 74.494 36.1043C74.8944 36.1449 82.0512 26.0103 82.1226 25.3047C82.1506 25.0079 76.4246 16.7787 74.4786 14.3259L73.5994 13.2157L72.7776 13.9255C71.8362 14.7762 70.912 15.6457 70.0056 16.5337C67.2364 19.2287 64.9586 21.3455 64.8438 21.3357C64.456 21.2951 62.5968 18.6911 62.7732 18.4335C63.434 17.4647 72.1182 10.0825 72.6488 10.0307C74.3988 9.85847 75.0148 10.9197 80.6568 19.0145C84.0588 23.8935 84.2338 24.2505 84.154 26.1531L84.112 27.1667L83.4652 28.2909C82.544 29.8925 78.4602 36.2961 77.3612 37.8627C76.055 39.7219 75.3466 40.1447 73.9886 39.8745C72.8504 39.6505 72.009 38.6971 62.3532 26.6865C48.0522 8.90087 45.36 5.69207 44.8322 5.80407C43.8172 6.01687 22.561 17.1021 22.5218 17.4857C22.47 18.0163 39.529 36.0525 40.8506 36.9037C41.7522 37.4847 42.3248 36.7077 48.0648 31.6481C48.4134 31.3401 50.4756 29.4851 52.647 27.5251C54.0694 26.2371 55.4974 24.9533 56.931 23.6765L57.2656 23.3923L58.5606 24.9407C59.7282 26.3365 59.8388 26.5073 59.6806 26.6683C59.3502 27.0085 53.3638 32.9193 51.4836 34.7617C45.5098 40.6193 44.3646 41.4439 41.9748 41.6133C40.495 41.7183 39.4982 41.5895 38.7618 41.1961Z" fill="#999999"/>
<path d="M177.264 34.1079L186.361 20.6021L177.505 7.4295H182.248L188.751 17.3233L195.216 7.4295H199.977L191.121 20.6021L200.199 34.1079H195.457L188.751 23.8991L182.025 34.1079H177.264ZM153.248 34.1079L161.918 7.4295H167.495L176.165 34.1079H172.144L164.16 9.7647H165.161L157.268 34.1079H153.248ZM157.749 28.0879V24.4549H171.682V28.0865H157.749V28.0879ZM133.717 34.1079V7.4281H144.498C144.757 7.4281 145.079 7.4421 145.461 7.4659C145.845 7.4785 146.209 7.5149 146.555 7.5779C148.037 7.8117 149.272 8.3185 150.261 9.0955C151.253 9.86388 152.026 10.8797 152.502 12.0411C152.996 13.2269 153.243 14.5373 153.243 15.9695C153.243 17.4143 152.996 18.7289 152.502 19.9147C152.026 21.0761 151.253 22.0919 150.261 22.8603C149.272 23.6387 148.037 24.1455 146.555 24.3793C146.209 24.4297 145.838 24.4661 145.443 24.4913C145.061 24.5165 144.746 24.5277 144.498 24.5277H137.588V34.1065L133.717 34.1079ZM137.588 20.8611H144.35C144.598 20.8611 144.869 20.8499 145.166 20.8247C145.474 20.7995 145.764 20.7561 146.037 20.6945C146.826 20.5097 147.462 20.1695 147.945 19.6753C148.427 19.1699 148.772 18.5889 148.982 17.9337C149.402 16.6646 149.402 15.294 148.982 14.0249C148.776 13.3775 148.421 12.7876 147.945 12.3029C147.462 11.7961 146.826 11.4503 146.037 11.2655C145.752 11.1892 145.46 11.1395 145.166 11.1171C144.895 11.0933 144.622 11.0807 144.35 11.0793H137.588V20.8611ZM102.2 34.1079V7.4281H105.701L115.371 27.4929L124.986 7.4281H128.526V34.0883H124.858V15.8407L116.242 34.1079H114.481L105.848 15.8407V34.1079H102.2Z" fill="#999999"/>
<defs>
<linearGradient id="paint0_linear_44_129" x1="0.698618" y1="20.7659" x2="83.9986" y2="25.6659" gradientUnits="userSpaceOnUse">
<stop stop-color="#545358" stop-opacity="0.3"/>
<stop offset="1" stop-color="#657382" stop-opacity="0"/>
</linearGradient>
</defs>
</svg>
