<svg width="180" height="41" viewBox="0 0 180 41" fill="none" xmlns="http://www.w3.org/2000/svg">
<g clip-path="url(#clip0_242_102)">
<path d="M21.9707 2.18899C24.7073 2.18899 27.2685 3.68306 28.6017 6.04577L29.5139 7.64408L31.233 6.94916C32.1452 6.56696 33.0925 6.39323 34.0749 6.39323C38.25 6.39323 41.6532 9.76357 41.6532 13.8983C41.6532 15.8441 40.9164 17.6856 39.5481 19.0754L38.1447 20.5L39.5481 21.9246C40.9164 23.3144 41.6532 25.1559 41.6532 27.1017C41.6532 31.2365 38.25 34.6068 34.0749 34.6068C33.0925 34.6068 32.1452 34.4331 31.233 34.0509L29.5139 33.3559L28.6017 34.9543C27.2685 37.3517 24.7073 38.8458 21.9707 38.8458C19.2341 38.8458 16.6729 37.3517 15.3397 34.9543L14.4275 33.3559L12.7083 34.0509C11.7961 34.4331 10.8488 34.6068 9.86643 34.6068C5.69135 34.6068 2.28813 31.2365 2.28813 27.1017C2.28813 25.1559 3.02491 23.3144 4.39321 21.9246L5.7966 20.5L4.39321 19.0754C3.02491 17.6856 2.28813 15.8441 2.28813 13.8983C2.28813 9.76357 5.69135 6.39323 9.86643 6.39323C10.8488 6.39323 11.7961 6.56696 12.7083 6.94916L14.4275 7.64408L15.3397 6.04577C16.708 3.64832 19.2341 2.18899 21.9707 2.18899ZM21.9707 0.104248C18.3219 0.104248 15.1642 2.08476 13.5152 5.03815C12.3925 4.58645 11.1646 4.34323 9.86643 4.34323C4.53355 4.34323 0.183044 8.65171 0.183044 13.9331C0.183044 16.5042 1.2005 18.8322 2.88457 20.5348C1.23559 22.272 0.183044 24.6 0.183044 27.1365C0.183044 32.4178 4.53355 36.7263 9.86643 36.7263C11.1646 36.7263 12.3925 36.4831 13.5152 36.0314C15.1642 38.9848 18.3569 40.9653 22.0058 40.9653C25.6546 40.9653 28.8122 38.95 30.4963 36.0314C31.619 36.4831 32.8469 36.7263 34.1451 36.7263C39.478 36.7263 43.8285 32.4178 43.8285 27.1365C43.8285 24.5653 42.811 22.2373 41.1269 20.5348C42.7759 18.7975 43.8285 16.4695 43.8285 13.9331C43.8285 8.65171 39.478 4.34323 34.1451 4.34323C32.8469 4.34323 31.619 4.58645 30.4963 5.03815C28.8122 2.08476 25.6195 0.104248 21.9707 0.104248Z" fill="#ACACAC"/>
<path d="M99.6834 26.789C98.28 28.5263 95.6486 30.1941 92.1051 30.1941C86.8774 30.1941 82.7725 26.3026 82.7725 20.5695C82.7725 15.2882 86.4213 10.9449 91.684 10.9449C96.6661 10.9449 100.35 14.8365 100.35 19.9441C100.35 20.1178 100.35 20.3958 100.315 20.7433H85.1232C85.2986 24.6695 87.8598 27.9704 92.1402 27.9704C94.5961 27.9704 96.631 26.9975 98.1046 25.2255L99.6834 26.789ZM85.1934 18.6585H97.8941C97.4029 15.4271 94.8768 13.1339 91.649 13.1339C88.351 13.1339 85.8951 15.4619 85.1934 18.6585Z" fill="#ACACAC"/>
<path d="M110.068 21.4033L103.999 29.7771H101.262L108.455 19.8745L102.28 11.3618H105.016L110.068 18.3457L115.121 11.3618H117.857L111.682 19.8745L118.875 29.7771H116.138L110.068 21.4033Z" fill="#ACACAC"/>
<path d="M133.716 13.5161H127.4V23.6271C127.4 25.2949 127.716 26.0941 128.207 26.6848C128.874 27.4839 129.926 27.9704 131.295 27.9704C131.821 27.9704 132.593 27.9356 133.295 27.7271L133.716 29.8466C133.119 30.0551 132.032 30.1593 131.295 30.1593C129.576 30.1593 127.576 29.6381 126.313 28.0398C125.506 27.0322 125.05 25.7119 125.05 23.5229V13.5161H119.822V11.3271H125.05V3.64832H127.365V11.3619H133.68V13.5161" fill="#ACACAC"/>
<path d="M160.275 11.3271H162.59V29.7771H160.275V11.3271Z" fill="#ACACAC"/>
<path d="M179.817 13.5161H173.502V23.6271C173.502 25.2949 173.817 26.0941 174.309 26.6848C174.975 27.4839 176.028 27.9704 177.396 27.9704C177.922 27.9704 178.694 27.9356 179.396 27.7271L179.817 29.8466C179.22 30.0551 178.133 30.1593 177.396 30.1593C175.677 30.1593 173.677 29.6381 172.414 28.0398C171.607 27.0322 171.151 25.7119 171.151 23.5229V13.5161H165.958V11.3271H171.186V3.64832H173.502V11.3619H179.817V13.5161Z" fill="#ACACAC"/>
<path d="M146.486 10.9449C143.539 10.9449 140.873 12.2653 139.084 14.3153V3.64832H136.768V20.917C136.943 26.0941 141.224 30.1941 146.451 30.1941C151.819 30.1941 156.17 25.8856 156.17 20.5695C156.205 15.2534 151.854 10.9449 146.486 10.9449ZM146.486 27.8314C142.452 27.8314 139.154 24.5653 139.154 20.5695C139.154 16.5737 142.452 13.3076 146.486 13.3076C150.521 13.3076 153.819 16.5737 153.819 20.5695C153.819 24.5653 150.521 27.8314 146.486 27.8314Z" fill="#ACACAC"/>
<path d="M64.353 13.9677C65.8968 11.9872 68.3878 10.9796 71.0191 10.9796C73.7558 10.9796 76.2117 12.0567 77.7554 14.072C78.808 15.3923 79.3693 16.9211 79.3693 19.9788V29.7771H77.0186V20.1178C77.0186 17.6855 76.5976 16.5389 75.931 15.6008C74.8434 14.072 73.0541 13.1339 70.9841 13.1339C68.2475 13.1339 65.8968 14.5584 64.4232 16.9559V29.7423H62.0725V11.3271H64.353V13.9677Z" fill="#ACACAC"/>
</g>
<defs>
<clipPath id="clip0_242_102">
<rect width="180" height="41" fill="white"/>
</clipPath>
</defs>
</svg>
