<svg width="16" height="16" viewBox="0 0 16 16" fill="none" xmlns="http://www.w3.org/2000/svg">
<path d="M8.91788 7.99617L15.8102 1.10122C15.9318 0.9791 16 0.813795 15.9999 0.641513C15.9997 0.469232 15.9313 0.304018 15.8096 0.182058C15.5659 -0.0602781 15.1366 -0.0615019 14.8905 0.183282L8.00001 7.07823L1.10709 0.181446C0.862164 -0.0602781 0.432926 -0.0590543 0.189222 0.18267C0.128732 0.242883 0.0808472 0.314533 0.0483617 0.39344C0.0158762 0.472347 -0.000559128 0.556929 1.45145e-05 0.642252C1.45145e-05 0.816049 0.06737 0.97883 0.189222 1.09939L7.08152 7.99556L0.189834 14.8924C0.0682183 15.0147 0.0001119 15.1802 0.000456277 15.3526C0.000800655 15.525 0.0695678 15.6903 0.191672 15.8121C0.30985 15.929 0.477014 15.9963 0.649689 15.9963H0.653362C0.82665 15.9957 0.993814 15.9278 1.10954 15.8097L8.00001 8.91473L14.8929 15.8115C15.0148 15.9327 15.1776 16 15.3503 16C15.4357 16.0002 15.5203 15.9836 15.5992 15.9511C15.6782 15.9185 15.7499 15.8707 15.8103 15.8104C15.8706 15.75 15.9185 15.6784 15.951 15.5995C15.9836 15.5206 16.0002 15.436 16 15.3507C16 15.1775 15.9326 15.0141 15.8102 14.8936L8.91788 7.99617Z" fill="white"/>
</svg>
