<svg width="64" height="64" viewBox="0 0 64 64" fill="none" xmlns="http://www.w3.org/2000/svg">
<path d="M24.3924 12.6792C20.4075 12.6792 15.5773 12.9208 11.4717 13.5245C15.5773 14.2491 20.2868 14.3698 24.3924 14.3698C26.566 14.3698 28.7396 14.3698 30.7924 14.1283C32.966 14.0075 35.1396 13.766 37.1924 13.4038C35.0188 13.0415 32.8453 12.8 30.7924 12.6792C28.7396 12.6792 26.566 12.6792 24.3924 12.6792Z" fill="#CCA24B"/>
<path d="M26.6868 23.4264C28.3773 23.3057 30.0679 23.0641 31.7585 22.7019C30.0679 22.3396 28.3773 22.0981 26.6868 21.9774C24.9962 21.8566 23.3056 21.7358 21.6151 21.7358C18.4755 21.7358 14.7321 21.9774 11.4717 22.5811C14.6113 23.3057 18.4755 23.4264 21.6151 23.4264C23.3056 23.5472 24.9962 23.5472 26.6868 23.4264Z" fill="#CCA24B"/>
<path d="M24.3924 30.9132C20.4075 30.9132 15.5773 31.1547 11.4717 31.7585C15.5773 32.483 20.2868 32.6038 24.3924 32.6038C26.566 32.6038 28.7396 32.6038 30.7924 32.3623C32.966 32.2415 35.1396 32 37.1924 31.6377C35.0188 31.2755 32.8453 31.034 30.7924 30.9132C28.7396 31.034 26.566 30.9132 24.3924 30.9132Z" fill="#CCA24B"/>
<path d="M22.5815 41.6604C23.789 41.5396 24.9965 41.2981 26.2041 40.9358C24.9965 40.5736 23.789 40.3321 22.5815 40.2113C19.3211 39.849 14.6116 39.9698 11.5928 40.9358C14.6116 41.9019 19.3211 42.0226 22.5815 41.6604Z" fill="#CCA24B"/>
<path d="M22.2192 49.5094C18.8381 49.5094 14.9739 49.7509 11.5928 50.3547C14.9739 51.0792 18.9588 51.2 22.2192 51.2C25.6003 51.2 29.4645 50.9585 32.8456 50.3547C29.4645 49.6302 25.4796 49.5094 22.2192 49.5094Z" fill="#CCA24B"/>
<path d="M58.204 9.90188C56.5134 10.0226 55.0644 10.6264 53.6153 11.3509C52.287 12.0755 50.9587 12.9208 49.7511 13.8868C48.3021 15.0943 46.9738 16.5434 45.7662 18.1132C46.0078 12.0755 46.0078 11.5924 46.1285 8.33207C46.2493 5.91698 44.6795 3.62264 41.2983 3.62264C33.9323 3.38113 8.21152 2.89811 6.52096 3.01886C4.10586 3.13962 1.93228 5.07169 1.81152 7.96981V23.0641L1.93228 41.5396L2.05303 50.8377V55.4264V56.0302C2.05303 56.2717 2.05303 56.5132 2.17379 56.7547C2.29454 57.2377 2.4153 57.7207 2.65681 58.083C3.13983 58.9283 3.7436 59.6528 4.58888 60.1358C5.0719 60.3774 5.43417 60.4981 5.91718 60.6189C6.4002 60.7396 6.88322 60.7396 7.24549 60.7396H9.53983L14.1285 60.6189L23.4266 60.3774L35.7436 60.0151C35.9851 60.1358 36.2266 60.3774 36.5889 60.3774C37.7964 60.6189 49.1474 60.8604 50.4757 60.9811H50.9587C52.4078 60.9811 53.736 59.8943 53.8568 57.9623C53.8568 54.9434 53.8568 50.234 53.8568 49.9925C53.8568 49.1472 53.3738 48.1811 52.6493 47.5774C52.287 47.3358 51.804 47.0943 51.4417 46.9736C51.2002 46.9736 50.9587 46.9736 50.8379 46.9736H50.3549H49.0266C49.1474 46.6113 49.2681 46.1283 49.2681 45.766C49.3889 45.0415 49.5096 44.1962 49.6304 43.4717C49.6304 42.9887 49.3889 42.6264 48.9059 42.6264H48.6644C47.8191 42.5057 46.0078 42.3849 43.9549 42.3849C43.3511 42.3849 42.8681 42.3849 42.2644 42.5057C42.8681 40.6943 43.4719 38.883 44.0757 37.0717C44.5587 37.0717 44.921 36.8302 45.2832 36.7094C47.0945 35.7434 48.7851 33.8113 50.1134 32.2415C51.9247 29.9472 53.7361 27.6528 55.4266 25.3585C57.1172 23.0641 58.8078 20.6491 60.3776 18.1132C61.1021 16.7849 61.8266 15.4566 62.0681 13.6453C62.1889 12.6792 62.0681 11.5924 60.9813 10.6264C60.0153 9.90188 59.0493 9.90188 58.204 9.90188ZM43.9549 44.8C45.5247 44.8 46.2493 44.6792 47.8191 44.5585C47.9398 44.9208 47.9398 45.4038 48.0606 45.766C48.1813 46.1283 48.3021 46.6113 48.3021 46.9736C46.7323 46.9736 43.3511 47.0943 39.3662 47.3358C39.6077 46.3698 39.8493 45.4038 39.97 44.4377C41.6606 44.8 42.2644 44.9207 43.9549 44.8ZM41.5398 42.5057C40.6945 42.6264 39.97 42.6264 39.1247 42.7472H38.8832C38.4002 42.8679 38.1587 43.2302 38.1587 43.5924C38.2794 44.9207 38.521 46.1283 38.8832 47.4566C38.6417 47.4566 38.4002 47.4566 38.1587 47.4566L37.4342 47.6981C37.1927 47.6981 36.8304 47.6981 36.4681 47.8189C35.7436 48.0604 35.2606 48.6641 35.0191 49.2679C34.8983 49.6302 34.8983 50.1132 35.2606 52.7698C35.2606 52.5283 35.5021 49.7509 35.7436 49.5094C35.9851 49.1472 36.3474 48.7849 36.8304 48.6641C37.1927 48.6641 37.9172 48.6642 38.4002 48.7849C43.4719 49.1472 45.2832 49.1472 50.8379 49.2679H51.0794C51.2002 49.2679 51.321 49.3887 51.321 49.3887C51.4417 49.5094 51.5625 49.7509 51.5625 49.9925C51.5625 50.1132 51.5625 57.8415 51.5625 57.7207V57.9623C51.4417 58.566 51.2002 58.566 50.5964 58.6868C50.4757 58.6868 37.0719 59.1698 36.9511 59.1698C36.4681 59.1698 35.8644 58.6868 35.7436 57.9623L35.6228 56.2717C35.5021 55.1849 35.3813 53.9774 35.2606 52.8906C35.1398 53.9774 35.0191 55.1849 34.8983 56.2717L34.7776 57.9623C34.7776 58.566 34.8983 59.1698 35.2606 59.6528C31.2757 59.5321 27.4115 59.4113 23.4266 59.2906L14.1285 59.0491L9.53983 58.9283H7.24549C6.76247 58.9283 6.52096 58.9283 6.27945 58.8075C6.03794 58.6868 5.67567 58.6868 5.43417 58.4453C4.95115 58.2038 4.46813 57.7208 4.22662 57.2377C4.10586 56.9962 3.98511 56.7547 3.98511 56.3924C3.98511 56.2717 3.98511 56.1509 3.98511 55.9094V55.3057V50.717L4.10586 41.4189C4.10586 41.2981 4.10586 7.7283 4.10586 7.84905C4.10586 6.27924 5.19266 5.07169 7.12473 5.07169C22.7021 4.95094 29.8266 4.83018 41.2983 4.58868C44.0757 4.46792 45.404 6.03773 45.404 8.09056C45.5247 11.2302 45.5247 12.0755 45.7662 18.1132C45.1625 18.9585 44.5587 19.683 44.0757 20.6491C42.5059 23.1849 41.5398 26.083 41.0568 28.9811C40.8153 30.4302 40.8153 32 40.9361 33.4491C41.0568 34.1736 41.1776 34.8981 41.5398 35.6226C41.6606 35.9849 42.0228 36.3472 42.2644 36.5887C41.9021 38.5207 41.6606 40.4528 41.7813 42.5057C41.7813 42.5057 41.6606 42.5057 41.5398 42.5057ZM59.7738 13.4038C59.653 14.4906 59.0493 15.8189 58.4455 17.0264C57.1172 19.4415 55.5474 21.8566 53.9776 24.2717C52.4078 26.6868 50.8379 29.1019 49.2681 31.517C48.4228 32.7245 47.6983 33.8113 46.7323 34.8981C46.2493 35.3811 45.7662 35.9849 45.1625 36.3472C44.8002 36.5887 44.5587 36.7094 44.1964 36.8302C44.1964 36.8302 44.1964 36.8302 44.1964 36.7094C45.7662 32.483 47.8191 28.1358 50.1134 24.0302C51.321 21.9774 52.5285 19.9245 53.7361 17.8717C51.804 19.3208 49.9927 21.0113 48.5436 22.9434C45.5247 26.6868 43.4719 31.1547 42.3851 36.1057V36.2264C42.1436 35.9849 42.0228 35.6226 41.9021 35.2604C41.6606 34.6566 41.6606 33.9321 41.5398 33.2075C41.5398 31.7585 41.7813 30.4302 42.1436 29.1019C42.8681 26.4453 44.0757 23.7887 45.6455 21.4943C47.2153 19.2 49.0266 17.0264 51.2002 15.4566C52.287 14.6113 53.3738 13.8868 54.5813 13.283C55.7889 12.6792 57.1172 12.1962 58.204 12.1962C58.8078 12.1962 59.2908 12.1962 59.4115 12.4377C59.4115 12.4377 59.4115 12.4377 59.5323 12.5585C59.5323 12.6792 59.653 12.6792 59.653 12.8V13.0415C59.7738 13.1623 59.7738 13.283 59.7738 13.4038Z" fill="#CCA24B"/>
</svg>
