<svg width="64" height="64" viewBox="0 0 64 64" fill="none" xmlns="http://www.w3.org/2000/svg">
<path d="M14.1615 10.985C14.1982 11.084 14.2183 11.15 14.222 11.183C14.2293 11.2527 14.2037 11.3113 14.145 11.359C14.145 11.3627 14.1413 11.3682 14.134 11.3755C14.167 11.5478 14.1743 11.7092 14.156 11.8595C14.1377 12.0098 14.1138 12.1547 14.0845 12.294C14.2825 11.9567 14.4402 11.7092 14.5575 11.5515C14.7995 11.2252 15.025 10.9923 15.234 10.853C15.3037 10.8127 15.388 10.7833 15.487 10.765C15.5897 10.743 15.6868 10.7393 15.7785 10.754C15.8702 10.7687 15.9453 10.8053 16.004 10.864C16.0663 10.9227 16.0938 11.0107 16.0865 11.128C15.9838 11.843 15.8738 12.5103 15.7565 13.13C15.6392 13.746 15.487 14.3345 15.3 14.8955V14.9065H15.2945C15.2505 15.0385 15.1405 15.132 14.9645 15.187C14.7922 15.2383 14.6382 15.242 14.5025 15.198C14.3375 15.1503 14.2623 15.0623 14.277 14.934L14.2825 14.8075V14.7965C14.2972 14.7085 14.3045 14.6498 14.3045 14.6205C14.3082 14.5875 14.3118 14.5637 14.3155 14.549C14.3228 14.4537 14.3375 14.3657 14.3595 14.285C14.3852 14.2007 14.4035 14.1328 14.4145 14.0815C14.4255 14.0302 14.4365 13.9825 14.4475 13.9385C14.4585 13.8908 14.4658 13.8542 14.4695 13.8285C14.3302 14.0192 14.2312 14.1347 14.1725 14.175C14.0258 14.2777 13.8553 14.3253 13.661 14.318C13.54 14.3107 13.4703 14.2832 13.452 14.2355C13.4153 14.1328 13.3897 14.0723 13.375 14.054C13.353 14.0247 13.3347 13.9752 13.32 13.9055C13.2247 14.3272 13.1312 14.626 13.0395 14.802C13.0028 14.8717 12.9662 14.934 12.9295 14.989C12.8782 15.11 12.7608 15.1943 12.5775 15.242C12.4052 15.2897 12.2402 15.286 12.0825 15.231C11.9212 15.1797 11.8442 15.088 11.8515 14.956C11.8588 14.824 11.8863 14.659 11.934 14.461C11.978 14.2593 12.0312 14.0467 12.0935 13.823C12.2805 13.1153 12.4125 12.6552 12.4895 12.4425C12.5702 12.2298 12.638 12.063 12.693 11.942C12.825 11.6597 12.9423 11.4543 13.045 11.326C13.1587 11.095 13.3475 10.9557 13.6115 10.908C13.8205 10.8677 14.0038 10.8933 14.1615 10.985ZM17.1942 11.359C17.4252 11.095 17.6819 10.93 17.9642 10.864C18.1586 10.8163 18.3419 10.8237 18.5142 10.886C18.6499 10.743 18.8259 10.6917 19.0422 10.732C19.2402 10.7687 19.4089 10.8805 19.5482 11.0675C19.5556 11.0932 19.5702 11.1317 19.5922 11.183C19.6179 11.2343 19.6417 11.2912 19.6637 11.3535C19.8251 11.7275 19.8379 12.2188 19.7022 12.8275C19.5336 13.5828 19.2347 14.2227 18.8057 14.747C18.6737 14.9083 18.5252 15.0422 18.3602 15.1485C18.0962 15.3502 17.7809 15.44 17.4142 15.418C17.1869 15.407 16.9962 15.3502 16.8422 15.2475C16.2299 14.9432 16.0301 14.3088 16.2427 13.3445C16.4187 12.5525 16.7359 11.8907 17.1942 11.359ZM17.2602 14.2795L17.2547 14.3125L17.2657 14.373C17.2877 14.4867 17.3244 14.5747 17.3757 14.637C17.4271 14.6957 17.4692 14.7323 17.5022 14.747C17.5389 14.7177 17.5756 14.6902 17.6122 14.6645C17.6489 14.6388 17.6819 14.6077 17.7112 14.571C17.9606 14.263 18.1549 13.8597 18.2942 13.361C18.4336 12.8623 18.4849 12.4003 18.4482 11.975C18.3052 12.1583 18.1549 12.3692 17.9972 12.6075C17.8396 12.8458 17.7149 13.0493 17.6232 13.218C17.4142 13.6103 17.2932 13.9642 17.2602 14.2795ZM20.8279 15.0165C20.7949 15.1632 20.6813 15.253 20.4869 15.286C20.3073 15.319 20.1368 15.2988 19.9754 15.2255C19.7958 15.1485 19.7169 15.0403 19.7389 14.901C19.7169 14.6883 19.8288 14.2263 20.0744 13.515C20.4411 12.448 20.8078 11.6853 21.1744 11.227C21.2698 11.1097 21.3504 11.0345 21.4164 11.0015C21.4861 10.9648 21.5649 10.9318 21.6529 10.9025C21.7409 10.8732 21.8326 10.8457 21.9279 10.82C22.1186 10.7687 22.2983 10.7338 22.4669 10.7155C22.6393 10.6935 22.7933 10.7137 22.9289 10.776C23.0646 10.8347 23.1691 10.9227 23.2424 11.04C23.3194 11.1573 23.3671 11.2967 23.3854 11.458C23.4038 11.6157 23.3983 11.7825 23.3689 11.9585C23.3396 12.1308 23.2864 12.3068 23.2094 12.4865C23.1324 12.6625 23.0353 12.8275 22.9179 12.9815C22.6613 13.3188 22.3606 13.537 22.0159 13.636L22.0709 13.7295C22.1186 13.8028 22.1754 13.8835 22.2414 13.9715C22.3111 14.0595 22.3789 14.1493 22.4449 14.241C22.5146 14.3327 22.5769 14.4243 22.6319 14.516C22.6869 14.6077 22.7273 14.6938 22.7529 14.7745C22.8116 14.9542 22.7658 15.0843 22.6154 15.165C22.4944 15.2383 22.3991 15.2567 22.3294 15.22C22.3001 15.2017 22.2708 15.1778 22.2414 15.1485C22.2121 15.1228 22.1718 15.1008 22.1204 15.0825C21.9041 15.1448 21.7391 15.0898 21.6254 14.9175C21.5558 14.8075 21.5026 14.7067 21.4659 14.615C21.4293 14.5233 21.3981 14.4463 21.3724 14.384C21.3064 14.2483 21.2313 14.131 21.1469 14.032C21.1066 14.131 21.0608 14.2575 21.0094 14.4115C20.9471 14.6058 20.8774 14.8075 20.8004 15.0165H20.8279ZM21.9389 11.8155C21.8693 11.9732 21.8216 12.0832 21.7959 12.1455C21.7446 12.2702 21.6878 12.4077 21.6254 12.558C21.6144 12.6387 21.6053 12.6955 21.5979 12.7285L21.6749 12.6515L21.7684 12.6075C21.8344 12.5708 21.8949 12.5378 21.9499 12.5085C22.0049 12.4792 22.0544 12.4425 22.0984 12.3985C22.1828 12.3142 22.2561 12.1767 22.3184 11.986C22.3184 11.9493 22.3239 11.9127 22.3349 11.876C22.3496 11.8393 22.3588 11.8027 22.3624 11.766C22.3771 11.6853 22.3441 11.6285 22.2634 11.5955C22.1901 11.5882 22.0984 11.6487 21.9884 11.777C21.9664 11.8027 21.9499 11.8155 21.9389 11.8155ZM25.8111 12.261C25.8111 12.151 25.7726 12.096 25.6956 12.096C25.6663 12.096 25.6314 12.1033 25.5911 12.118C25.5508 12.1327 25.5123 12.1455 25.4756 12.1565C25.3399 12.2298 25.2336 12.3105 25.1566 12.3985C25.0833 12.4828 25.0081 12.5782 24.9311 12.6845C24.8541 12.7908 24.7881 12.9045 24.7331 13.0255C24.6781 13.1465 24.6359 13.2602 24.6066 13.3665C24.5003 13.7588 24.5406 14.0228 24.7276 14.1585C24.8046 14.2135 24.8853 14.241 24.9696 14.241C25.0576 14.2373 25.1273 14.219 25.1786 14.186C25.2336 14.153 25.2868 14.1218 25.3381 14.0925C25.3894 14.0632 25.4481 14.043 25.5141 14.032C25.5838 14.0173 25.6681 14.0265 25.7671 14.0595C25.8698 14.0888 25.9248 14.1292 25.9321 14.1805C25.9394 14.2318 25.9394 14.285 25.9321 14.34C25.9248 14.395 25.9229 14.4445 25.9266 14.4885C25.9339 14.5325 25.9743 14.56 26.0476 14.571C26.1173 14.659 26.0733 14.7653 25.9156 14.89C25.8753 14.923 25.8368 14.9542 25.8001 14.9835C25.4848 15.1852 25.1493 15.297 24.7936 15.319C24.5699 15.3337 24.3316 15.2933 24.0786 15.198C23.7009 15.055 23.4883 14.7342 23.4406 14.2355C23.3783 13.7735 23.4369 13.295 23.6166 12.8C23.7669 12.382 23.9943 11.9952 24.2986 11.6395C24.5736 11.3132 24.8449 11.1005 25.1126 11.0015C25.4316 10.8365 25.7763 10.7723 26.1466 10.809C26.5389 10.8603 26.7956 11.0272 26.9166 11.3095C27.0376 11.5918 27.0174 11.931 26.8561 12.327C26.8011 12.4663 26.6966 12.5763 26.5426 12.657C26.4106 12.7303 26.2676 12.767 26.1136 12.767C25.9596 12.767 25.8606 12.7193 25.8166 12.624C25.7726 12.525 25.7708 12.404 25.8111 12.261ZM29.8109 11.271C29.9356 11.337 30.0144 11.4342 30.0474 11.5625C29.9741 11.9732 29.9081 12.382 29.8494 12.789C29.7908 13.1923 29.7339 13.5315 29.6789 13.8065C29.6239 14.0778 29.5854 14.2813 29.5634 14.417C29.5451 14.5527 29.5231 14.6883 29.4974 14.824L29.4644 14.9395C29.4571 14.9798 29.4498 15.0165 29.4424 15.0495C29.4351 15.0862 29.4278 15.1247 29.4204 15.165C29.3178 15.2823 29.1784 15.341 29.0024 15.341C28.8154 15.341 28.6669 15.2933 28.5569 15.198C28.4909 15.1467 28.4799 15.0385 28.5239 14.8735C28.5423 14.8075 28.5533 14.7232 28.5569 14.6205C28.5643 14.5142 28.5716 14.4262 28.5789 14.3565V14.3455C28.4689 14.3858 28.3699 14.439 28.2819 14.505C28.1939 14.5673 28.1389 14.6077 28.1169 14.626C28.0949 14.6407 28.0656 14.6535 28.0289 14.6645C27.9923 14.6718 27.9593 14.6773 27.9299 14.681C27.8603 14.6847 27.8126 14.6957 27.7869 14.714C27.5743 15.0953 27.3836 15.308 27.2149 15.352C27.1086 15.385 27.0023 15.3923 26.8959 15.374C26.7896 15.3593 26.7053 15.297 26.6429 15.187C26.5256 15.077 26.5549 14.7763 26.7309 14.285C26.8263 14.0247 26.9619 13.713 27.1379 13.35C27.3176 12.9833 27.4899 12.6643 27.6549 12.393C28.0106 11.81 28.4011 11.3187 28.8264 10.919C28.8961 10.8897 28.9713 10.8567 29.0519 10.82C29.1326 10.7797 29.2114 10.7577 29.2884 10.754C29.3691 10.7503 29.4516 10.7595 29.5359 10.7815C29.6203 10.8035 29.6918 10.8365 29.7504 10.8805C29.8861 10.9832 29.9063 11.1133 29.8109 11.271ZM28.6339 12.7175C28.5569 12.9375 28.4799 13.141 28.4029 13.328C28.3259 13.5113 28.2599 13.6727 28.2049 13.812L28.6394 13.7955C28.6688 13.5608 28.7018 13.328 28.7384 13.097C28.7751 12.866 28.8099 12.635 28.8429 12.404L28.6339 12.7175ZM28.4854 13.8175C28.5368 13.8175 28.5881 13.8138 28.6394 13.8065V13.801C28.5918 13.8047 28.5478 13.8083 28.5074 13.812C28.4671 13.8157 28.4598 13.8175 28.4854 13.8175ZM30.5229 12.866C30.5963 12.6203 30.6549 12.4315 30.6989 12.2995C30.7466 12.1638 30.7924 12.0428 30.8364 11.9365C30.8804 11.8302 30.9299 11.7275 30.9849 11.6285C31.0436 11.5295 31.1059 11.4397 31.1719 11.359C31.2416 11.2747 31.3149 11.2087 31.3919 11.161C31.4689 11.1133 31.5496 11.0895 31.6339 11.0895C31.7183 11.0895 31.8063 11.1225 31.8979 11.1885C32.0446 11.5552 32.1344 11.8008 32.1674 11.9255C32.2114 12.1088 32.2518 12.3673 32.2884 12.701C32.3214 12.6167 32.3581 12.5287 32.3984 12.437C32.4424 12.3417 32.4846 12.2463 32.5249 12.151C32.6386 11.909 32.7101 11.7257 32.7394 11.601C32.8201 11.3443 32.9869 11.1518 33.2399 11.0235C33.4599 10.9135 33.6653 10.8787 33.8559 10.919C33.9329 10.9337 33.9861 10.9648 34.0154 11.0125C34.0484 11.0602 34.0484 11.1097 34.0154 11.161C33.9861 11.2123 33.9751 11.2618 33.9824 11.3095C33.9934 11.3535 34.0026 11.4067 34.0099 11.469C34.0209 11.6377 33.9916 11.788 33.9219 11.92C33.8523 12.0483 33.7808 12.2097 33.7074 12.404C33.6341 12.5947 33.5589 12.7982 33.4819 13.0145C33.4086 13.2308 33.3334 13.4508 33.2564 13.6745C33.1794 13.8982 33.1043 14.1017 33.0309 14.285C32.8696 14.7067 32.7376 14.9395 32.6349 14.9835C32.4956 15.0678 32.3929 15.1173 32.3269 15.132C32.2426 15.1467 32.1234 15.1467 31.9694 15.132C31.8741 15.1247 31.7916 15.0018 31.7219 14.7635C31.6816 14.6352 31.6449 14.4573 31.6119 14.23C31.5533 13.834 31.5129 13.6158 31.4909 13.5755C31.3443 14.0522 31.2398 14.3528 31.1774 14.4775C31.1188 14.6022 31.0729 14.6847 31.0399 14.725C31.0106 14.7653 30.9739 14.8185 30.9299 14.8845C30.8823 15.0165 30.7686 15.1137 30.5889 15.176C30.4349 15.2347 30.2956 15.2438 30.1709 15.2035C30.0353 15.1595 29.9949 15.0752 30.0499 14.9505C30.0903 14.5105 30.2479 13.8157 30.5229 12.866ZM34.8013 15.319C34.6143 15.3263 34.4419 15.3025 34.2843 15.2475C34.1303 15.1962 34.0038 15.1247 33.9048 15.033C33.8094 14.9413 33.7489 14.835 33.7233 14.714C33.6976 14.5893 33.7196 14.4628 33.7893 14.3345C33.8846 14.1805 34.0753 14.1347 34.3613 14.197C34.5776 14.241 34.7261 14.2648 34.8068 14.2685C34.8911 14.2722 34.9626 14.2612 35.0213 14.2355C35.2889 14.1475 35.4393 14.0522 35.4723 13.9495C35.4943 13.8725 35.4466 13.7827 35.3293 13.68C35.2816 13.636 35.2284 13.592 35.1698 13.548C35.1111 13.504 35.0616 13.46 35.0213 13.416C34.8379 13.2803 34.6931 13.1245 34.5868 12.9485C34.4841 12.7688 34.4419 12.5745 34.4603 12.3655C34.4786 12.1565 34.5134 11.9842 34.5648 11.8485C34.6161 11.7092 34.6803 11.5863 34.7573 11.48C34.8929 11.293 35.0689 11.1408 35.2853 11.0235C35.5346 10.8952 35.7344 10.8127 35.8848 10.776C36.1818 10.71 36.4824 10.7045 36.7868 10.7595C36.8894 10.7778 36.9774 10.8127 37.0508 10.864C37.1241 10.9153 37.1974 10.9685 37.2708 11.0235C37.3991 11.1518 37.4303 11.282 37.3643 11.414C37.3386 11.4727 37.2983 11.5203 37.2433 11.557C37.1883 11.5937 37.1296 11.6138 37.0673 11.6175C37.0746 11.7165 37.0563 11.7898 37.0123 11.8375C36.9279 11.9218 36.7813 11.9768 36.5723 12.0025C36.2716 11.9805 36.0681 11.997 35.9618 12.052C35.8371 12.118 35.7913 12.261 35.8243 12.481C35.8316 12.5287 35.8609 12.5782 35.9123 12.6295C35.9673 12.6808 36.0296 12.7358 36.0993 12.7945C36.1726 12.8532 36.2478 12.9192 36.3248 12.9925C36.4054 13.0658 36.4751 13.1502 36.5338 13.2455C36.7391 13.5828 36.7226 13.977 36.4843 14.428C36.3083 14.7653 36.0076 15.0183 35.5823 15.187C35.3623 15.275 35.1019 15.319 34.8013 15.319Z" fill="#CCA24B"/>
<path d="M26.6868 23.4264C28.3773 23.3057 30.0679 23.0641 31.7585 22.7019C30.0679 22.3396 28.3773 22.0981 26.6868 21.9774C24.9962 21.8566 23.3056 21.7358 21.6151 21.7358C18.4755 21.7358 14.7321 21.9774 11.4717 22.5811C14.6113 23.3057 18.4755 23.4264 21.6151 23.4264C23.3056 23.5472 24.9962 23.5472 26.6868 23.4264Z" fill="#CCA24B"/>
<path d="M24.3924 30.9132C20.4075 30.9132 15.5773 31.1547 11.4717 31.7585C15.5773 32.483 20.2868 32.6038 24.3924 32.6038C26.566 32.6038 28.7396 32.6038 30.7924 32.3623C32.966 32.2415 35.1396 32 37.1924 31.6377C35.0188 31.2755 32.8453 31.034 30.7924 30.9132C28.7396 31.034 26.566 30.9132 24.3924 30.9132Z" fill="#CCA24B"/>
<path d="M22.5815 41.6604C23.789 41.5396 24.9965 41.2981 26.2041 40.9358C24.9965 40.5736 23.789 40.3321 22.5815 40.2113C19.3211 39.849 14.6116 39.9698 11.5928 40.9358C14.6116 41.9019 19.3211 42.0226 22.5815 41.6604Z" fill="#CCA24B"/>
<path d="M22.2192 49.5094C18.8381 49.5094 14.9739 49.7509 11.5928 50.3547C14.9739 51.0792 18.9588 51.2 22.2192 51.2C25.6003 51.2 29.4645 50.9585 32.8456 50.3547C29.4645 49.6302 25.4796 49.5094 22.2192 49.5094Z" fill="#CCA24B"/>
<path d="M58.204 9.90188C56.5134 10.0226 55.0644 10.6264 53.6153 11.3509C52.287 12.0755 50.9587 12.9208 49.7511 13.8868C48.3021 15.0943 46.9738 16.5434 45.7662 18.1132C46.0078 12.0755 46.0078 11.5924 46.1285 8.33207C46.2493 5.91698 44.6795 3.62264 41.2983 3.62264C33.9323 3.38113 8.21152 2.89811 6.52096 3.01886C4.10586 3.13962 1.93228 5.07169 1.81152 7.96981V23.0641L1.93228 41.5396L2.05303 50.8377V55.4264V56.0302C2.05303 56.2717 2.05303 56.5132 2.17379 56.7547C2.29454 57.2377 2.4153 57.7207 2.65681 58.083C3.13983 58.9283 3.7436 59.6528 4.58888 60.1358C5.0719 60.3774 5.43417 60.4981 5.91718 60.6189C6.4002 60.7396 6.88322 60.7396 7.24549 60.7396H9.53983L14.1285 60.6189L23.4266 60.3774L35.7436 60.0151C35.9851 60.1358 36.2266 60.3774 36.5889 60.3774C37.7964 60.6189 49.1474 60.8604 50.4757 60.9811H50.9587C52.4078 60.9811 53.736 59.8943 53.8568 57.9623C53.8568 54.9434 53.8568 50.234 53.8568 49.9925C53.8568 49.1472 53.3738 48.1811 52.6493 47.5774C52.287 47.3358 51.804 47.0943 51.4417 46.9736C51.2002 46.9736 50.9587 46.9736 50.8379 46.9736H50.3549H49.0266C49.1474 46.6113 49.2681 46.1283 49.2681 45.766C49.3889 45.0415 49.5096 44.1962 49.6304 43.4717C49.6304 42.9887 49.3889 42.6264 48.9059 42.6264H48.6644C47.8191 42.5057 46.0078 42.3849 43.9549 42.3849C43.3511 42.3849 42.8681 42.3849 42.2644 42.5057C42.8681 40.6943 43.4719 38.883 44.0757 37.0717C44.5587 37.0717 44.921 36.8302 45.2832 36.7094C47.0945 35.7434 48.7851 33.8113 50.1134 32.2415C51.9247 29.9472 53.7361 27.6528 55.4266 25.3585C57.1172 23.0641 58.8078 20.6491 60.3776 18.1132C61.1021 16.7849 61.8266 15.4566 62.0681 13.6453C62.1889 12.6792 62.0681 11.5924 60.9813 10.6264C60.0153 9.90188 59.0493 9.90188 58.204 9.90188ZM43.9549 44.8C45.5247 44.8 46.2493 44.6792 47.8191 44.5585C47.9398 44.9208 47.9398 45.4038 48.0606 45.766C48.1813 46.1283 48.3021 46.6113 48.3021 46.9736C46.7323 46.9736 43.3511 47.0943 39.3662 47.3358C39.6077 46.3698 39.8493 45.4038 39.97 44.4377C41.6606 44.8 42.2644 44.9207 43.9549 44.8ZM41.5398 42.5057C40.6945 42.6264 39.97 42.6264 39.1247 42.7472H38.8832C38.4002 42.8679 38.1587 43.2302 38.1587 43.5924C38.2794 44.9207 38.521 46.1283 38.8832 47.4566C38.6417 47.4566 38.4002 47.4566 38.1587 47.4566L37.4342 47.6981C37.1927 47.6981 36.8304 47.6981 36.4681 47.8189C35.7436 48.0604 35.2606 48.6641 35.0191 49.2679C34.8983 49.6302 34.8983 50.1132 35.2606 52.7698C35.2606 52.5283 35.5021 49.7509 35.7436 49.5094C35.9851 49.1472 36.3474 48.7849 36.8304 48.6641C37.1927 48.6641 37.9172 48.6642 38.4002 48.7849C43.4719 49.1472 45.2832 49.1472 50.8379 49.2679H51.0794C51.2002 49.2679 51.321 49.3887 51.321 49.3887C51.4417 49.5094 51.5625 49.7509 51.5625 49.9925C51.5625 50.1132 51.5625 57.8415 51.5625 57.7207V57.9623C51.4417 58.566 51.2002 58.566 50.5964 58.6868C50.4757 58.6868 37.0719 59.1698 36.9511 59.1698C36.4681 59.1698 35.8644 58.6868 35.7436 57.9623L35.6228 56.2717C35.5021 55.1849 35.3813 53.9774 35.2606 52.8906C35.1398 53.9774 35.0191 55.1849 34.8983 56.2717L34.7776 57.9623C34.7776 58.566 34.8983 59.1698 35.2606 59.6528C31.2757 59.5321 27.4115 59.4113 23.4266 59.2906L14.1285 59.0491L9.53983 58.9283H7.24549C6.76247 58.9283 6.52096 58.9283 6.27945 58.8075C6.03794 58.6868 5.67567 58.6868 5.43417 58.4453C4.95115 58.2038 4.46813 57.7208 4.22662 57.2377C4.10586 56.9962 3.98511 56.7547 3.98511 56.3924C3.98511 56.2717 3.98511 56.1509 3.98511 55.9094V55.3057V50.717L4.10586 41.4189C4.10586 41.2981 4.10586 7.7283 4.10586 7.84905C4.10586 6.27924 5.19266 5.07169 7.12473 5.07169C22.7021 4.95094 29.8266 4.83018 41.2983 4.58868C44.0757 4.46792 45.404 6.03773 45.404 8.09056C45.5247 11.2302 45.5247 12.0755 45.7662 18.1132C45.1625 18.9585 44.5587 19.683 44.0757 20.6491C42.5059 23.1849 41.5398 26.083 41.0568 28.9811C40.8153 30.4302 40.8153 32 40.9361 33.4491C41.0568 34.1736 41.1776 34.8981 41.5398 35.6226C41.6606 35.9849 42.0228 36.3472 42.2644 36.5887C41.9021 38.5207 41.6606 40.4528 41.7813 42.5057C41.7813 42.5057 41.6606 42.5057 41.5398 42.5057ZM59.7738 13.4038C59.653 14.4906 59.0493 15.8189 58.4455 17.0264C57.1172 19.4415 55.5474 21.8566 53.9776 24.2717C52.4078 26.6868 50.8379 29.1019 49.2681 31.517C48.4228 32.7245 47.6983 33.8113 46.7323 34.8981C46.2493 35.3811 45.7662 35.9849 45.1625 36.3472C44.8002 36.5887 44.5587 36.7094 44.1964 36.8302C44.1964 36.8302 44.1964 36.8302 44.1964 36.7094C45.7662 32.483 47.8191 28.1358 50.1134 24.0302C51.321 21.9774 52.5285 19.9245 53.7361 17.8717C51.804 19.3208 49.9927 21.0113 48.5436 22.9434C45.5247 26.6868 43.4719 31.1547 42.3851 36.1057V36.2264C42.1436 35.9849 42.0228 35.6226 41.9021 35.2604C41.6606 34.6566 41.6606 33.9321 41.5398 33.2075C41.5398 31.7585 41.7813 30.4302 42.1436 29.1019C42.8681 26.4453 44.0757 23.7887 45.6455 21.4943C47.2153 19.2 49.0266 17.0264 51.2002 15.4566C52.287 14.6113 53.3738 13.8868 54.5813 13.283C55.7889 12.6792 57.1172 12.1962 58.204 12.1962C58.8078 12.1962 59.2908 12.1962 59.4115 12.4377C59.4115 12.4377 59.4115 12.4377 59.5323 12.5585C59.5323 12.6792 59.653 12.6792 59.653 12.8V13.0415C59.7738 13.1623 59.7738 13.283 59.7738 13.4038Z" fill="#CCA24B"/>
</svg>
