<svg width="180" height="54" viewBox="0 0 180 54" fill="none" xmlns="http://www.w3.org/2000/svg">
<g clip-path="url(#clip0_44_151)">
<path fill-rule="evenodd" clip-rule="evenodd" d="M73.4164 38.1193L63.5248 26.6471V38.1193H56.6188V0.925781H63.5248V19.9207L71.571 10.1918H80.9723L69.4682 23.2826L82.8129 38.1193H73.4164ZM112.484 28.8682C112.482 35.1043 117.453 38.8294 122.455 38.8294C124.318 38.8294 126.905 38.2524 129.015 37.0714L124.595 31.5111C123.992 31.8971 123.232 32.1979 122.352 32.1979C121.256 32.1979 119.19 31.4066 119.19 28.7713V16.8202H124.926V10.1914H119.19L119.19 3.23205H112.483L112.484 10.1914H108.936V16.8202H112.484V28.8682ZM18.9662 25.0635L29.3447 38.1191H20.5642L11.9754 27.2994H7.01426V38.1191H0V3.23226H11.5915C18.6143 3.23226 24.3247 8.62297 24.3247 15.2601C24.3247 19.3015 22.2006 22.8694 18.9662 25.0635ZM162.304 11.23C162.304 11.23 164.705 9.50576 168.004 9.50576C175.128 9.50576 180 14.9819 180 21.7134V38.1191H173.293V21.7134C173.293 18.6361 171.055 16.0371 167.799 16.0371C164.54 16.0371 162.304 18.6361 162.304 21.7134V38.1191H155.597V10.1917H162.304V11.23ZM39.7695 38.8052C32.1401 38.8052 26.3443 32.2339 26.3443 24.1566C26.3443 16.0811 32.1401 9.50593 39.7695 9.50593C42.2528 9.50593 44.0662 10.2141 46.0882 11.4312V10.1918H52.7946V38.1193H46.0882V36.8809C44.0662 38.1002 42.2528 38.8052 39.7695 38.8052ZM36 43.3523H144.902L44.6749 51.5507L36 43.3523ZM46.1906 24.1564C46.1906 28.5789 43.536 32.0801 39.7693 32.0801C36.0075 32.0801 33.2529 28.5789 33.2529 24.1564C33.2529 19.737 36.0075 16.2354 39.7693 16.2354C43.536 16.2354 46.1906 19.737 46.1906 24.1564ZM94.1117 38.8054C97.4106 38.8054 99.8121 37.0809 99.8121 37.0809V38.1193H106.519V10.1919H99.8121V26.5976C99.8121 29.6751 97.5752 32.274 94.3168 32.274C91.0612 32.274 88.8225 29.6751 88.8225 26.5976V10.1919H82.1158V26.5976C82.1158 33.3293 86.9882 38.8054 94.1117 38.8054ZM11.5915 9.85629C14.7413 9.85629 17.3172 12.2779 17.3172 15.2603C17.3172 18.2508 14.7413 20.6707 11.5915 20.6706H7.01434V9.85629H11.5915ZM152.927 26.1105L133.608 26.1066C134.49 32.4885 142.125 35.7279 146.706 29.3456L152.63 32.5785C148.822 37.6839 144.29 38.8301 140.752 38.8301C133.745 38.8301 126.756 32.8046 126.756 24.1554C126.756 15.9297 132.324 9.48309 140.086 9.48309C147.717 9.48311 154.58 16.0799 152.927 26.1105ZM145.94 20.5508C144.634 13.6345 135.273 14.0097 133.861 20.5508H145.94Z" fill="#ACACAC"/>
</g>
<defs>
<clipPath id="clip0_44_151">
<rect width="180" height="52.5" fill="white" transform="translate(0 0.75)"/>
</clipPath>
</defs>
</svg>
