<svg width="119" height="24" viewBox="0 0 119 24" fill="none" xmlns="http://www.w3.org/2000/svg">
<path fill-rule="evenodd" clip-rule="evenodd" d="M117.627 0.619461L108.767 11.3273L118.747 23.1855H110.166L104.227 15.4275L98.1949 23.1855H89.6441L99.5935 11.3273L90.7634 0.619461H99.3141L104.196 7.49251L109.077 0.619461H117.627ZM67.1322 16.0765C67.1322 14.395 68.2516 12.6547 72.9467 12.5072C75.372 12.5957 78.2949 13.0971 80.1294 13.8346C79.4762 16.3714 77.0511 19.3802 72.2004 19.6458C68.3449 19.4392 67.1322 17.7284 67.1322 16.0765ZM74.6569 0C74.4392 0 74.1905 0 73.9728 0C73.8485 0 73.6929 0 73.5685 0C73.4754 0 73.3821 0 73.2888 0C63.712 0 61.3489 4.42471 60.8515 7.96447H67.9096C68.1272 5.9291 69.6819 4.04123 73.8174 3.83474C78.388 4.01174 80.2848 6.13561 80.3159 9.40989V9.91131C77.704 9.26237 74.9989 8.93794 72.2627 8.90846C72.045 8.90846 71.8275 8.90846 71.6097 8.90846C71.4853 8.90846 71.3299 8.90846 71.2055 8.90846C71.1122 8.90846 71.019 8.90846 70.9257 8.90846C62.4993 8.90846 59.9808 12.4186 59.9808 16.2534C59.9808 19.6162 61.8464 23.7755 70.0239 23.7755C70.1483 23.7755 70.3038 23.7755 70.4282 23.7755C70.4592 23.7755 70.5215 23.7755 70.5525 23.7755C70.8324 23.7755 71.0811 23.7755 71.3611 23.7755C75.1232 23.7755 78.2949 22.4185 80.3469 20.0882V20.2062V23.156H87.5297V10.6488C87.5297 4.86717 85.353 0 74.6569 0ZM35.0129 11.8287V11.9467C35.0129 16.8729 38.0289 19.2327 42.5686 19.4392C47.1082 19.2327 50.1242 16.8729 50.1242 11.9467V11.8287C50.1242 6.93205 47.1082 4.60171 42.5686 4.39521C38.0289 4.60171 35.0129 6.93205 35.0129 11.8287ZM43.2526 0C52.021 0 57.369 4.24773 57.369 11.7402V12.0057C57.369 19.5278 52.021 23.7755 43.2526 23.7755C43.1593 23.7755 43.066 23.7755 42.9727 23.7755C42.8484 23.7755 42.693 23.7755 42.5686 23.7755C42.3508 23.7755 42.1333 23.7755 41.8845 23.7755C33.1471 23.7755 27.7681 19.5278 27.7681 12.0057V11.7402C27.7681 4.24773 33.1162 0 41.8845 0C41.9777 0 42.071 0 42.1643 0C42.2887 0 42.4441 0 42.5686 0C42.7862 0 43.0348 0 43.2526 0ZM7.89943 6.57807C7.89943 8.6724 9.88944 9.26237 14.3669 9.76389C22.5444 10.5603 25.8713 12.5957 25.8713 16.7255C25.8713 21.2091 21.9536 23.805 13.8693 23.805H12.5012C3.67072 23.805 0.00170898 20.2357 0.00170898 15.7815H6.93553C7.15318 18.4363 9.64066 19.6162 13.3718 19.7342C17.2273 19.6162 18.5644 18.5839 18.5644 17.0205C18.5644 14.9555 16.5124 14.336 11.5374 13.6871C4.01275 12.7431 0.592483 10.9733 0.592483 6.75506C0.592483 3.1268 3.23541 0 11.6618 0C11.755 0 11.8793 0 11.9726 0C12.0659 0 12.1903 0 12.2836 0C12.5324 0 12.75 0 12.9988 0C21.7982 0 25.3117 3.77575 25.3739 7.37451H18.2536C18.0359 5.60463 16.1081 4.21823 12.1592 4.07073C9.04989 4.18872 7.89943 5.16216 7.89943 6.57807Z" fill="#999999"/>
</svg>
