<svg width="197" height="32" viewBox="0 0 197 32" fill="none" xmlns="http://www.w3.org/2000/svg">
<path d="M42.5516 24.721C39.8182 24.721 37.6531 23.878 36.056 22.1917L37.8296 19.6146C39.1502 21.0463 40.7779 21.7623 42.7128 21.7623C43.5574 21.7623 44.21 21.5952 44.6707 21.2611C45.1467 20.9112 45.3847 20.4895 45.3847 19.9964C45.3847 19.5669 45.162 19.209 44.7168 18.9226C44.2868 18.6363 43.7417 18.4295 43.0814 18.3023C42.4364 18.175 41.73 17.992 40.9622 17.7534C40.1944 17.5148 39.4804 17.2444 38.8201 16.9422C38.1751 16.6398 37.63 16.1626 37.1846 15.5105C36.7547 14.8582 36.5397 14.0628 36.5397 13.1242C36.5397 11.7562 37.0695 10.6108 38.1291 9.68812C39.1886 8.74955 40.6014 8.28027 42.3673 8.28027C44.8089 8.28027 46.8052 9.01999 48.3561 10.4994L46.5364 12.981C45.3232 11.8197 43.8338 11.2391 42.0678 11.2391C41.3769 11.2391 40.8394 11.3823 40.4555 11.6687C40.0716 11.955 39.8796 12.3448 39.8796 12.8379C39.8796 13.2197 40.0946 13.5458 40.5246 13.8162C40.9699 14.0708 41.515 14.2617 42.16 14.3889C42.8203 14.5161 43.5266 14.707 44.279 14.9616C45.0469 15.2002 45.7532 15.4786 46.3982 15.7968C47.0585 16.099 47.6036 16.5842 48.0336 17.2524C48.4789 17.9046 48.7015 18.692 48.7015 19.6146C48.7015 21.1418 48.1718 22.3747 47.1123 23.3133C46.0681 24.2518 44.5478 24.721 42.5516 24.721Z" fill="#999999"/>
<path d="M63.9651 22.9315C62.7981 24.1246 61.0782 24.7211 58.8055 24.7211C56.5328 24.7211 54.8053 24.1246 53.6229 22.9315C52.4558 21.7225 51.8723 20.1078 51.8723 18.0875V8.51892H55.1892V17.9682C55.1892 19.1136 55.504 20.0283 56.1336 20.7124C56.7632 21.3805 57.6538 21.7145 58.8055 21.7145C59.9572 21.7145 60.8401 21.3805 61.4544 20.7124C62.084 20.0283 62.3988 19.1136 62.3988 17.9682V8.51892H65.7387V18.0636C65.7387 20.1157 65.1475 21.7384 63.9651 22.9315Z" fill="#999999"/>
<path d="M86.3873 24.4347H83.0934V13.2913L78.7631 24.4347H77.3349L73.0047 13.2913V24.4347H69.7338V8.51892H74.3176L78.049 18.1353L81.7805 8.51892H86.3873V24.4347Z" fill="#999999"/>
<path d="M104.734 24.4347H101.003L100.058 21.7384H93.4705L92.5031 24.4347H88.7716L94.7143 8.51892H98.8144L104.734 24.4347ZM99.1599 18.7556L96.7643 11.9073L94.3688 18.7556H99.1599Z" fill="#999999"/>
<path d="M112.478 24.4347H109.184V11.5017H104.692V8.51892H116.947V11.5017H112.478V24.4347Z" fill="#999999"/>
<path d="M126.728 24.7211C124.409 24.7211 122.489 23.9496 120.97 22.4065C119.465 20.8476 118.712 18.875 118.712 16.4888C118.712 14.1026 119.465 12.138 120.97 10.5949C122.489 9.03596 124.409 8.25647 126.728 8.25647C129.063 8.25647 130.981 9.028 132.487 10.5711C134.007 12.1141 134.766 14.0867 134.766 16.4888C134.766 18.8909 134.007 20.8635 132.487 22.4065C130.981 23.9496 129.063 24.7211 126.728 24.7211ZM123.342 20.2352C124.202 21.2214 125.331 21.7145 126.728 21.7145C128.126 21.7145 129.253 21.2214 130.114 20.2352C130.974 19.2488 131.404 18.0001 131.404 16.4888C131.404 14.9776 130.974 13.7288 130.114 12.7425C129.253 11.7563 128.126 11.263 126.728 11.263C125.331 11.263 124.202 11.7563 123.342 12.7425C122.497 13.7288 122.076 14.9776 122.076 16.4888C122.076 18.0001 122.497 19.2488 123.342 20.2352Z" fill="#999999"/>
<path d="M143.489 24.721C140.756 24.721 138.591 23.878 136.994 22.1917L138.767 19.6146C140.088 21.0463 141.716 21.7623 143.651 21.7623C144.495 21.7623 145.148 21.5952 145.609 21.2611C146.084 20.9112 146.323 20.4895 146.323 19.9964C146.323 19.5669 146.1 19.209 145.655 18.9226C145.225 18.6363 144.68 18.4295 144.02 18.3023C143.374 18.175 142.668 17.992 141.9 17.7534C141.132 17.5148 140.418 17.2444 139.758 16.9422C139.113 16.6398 138.568 16.1626 138.123 15.5105C137.693 14.8582 137.478 14.0628 137.478 13.1242C137.478 11.7562 138.007 10.6108 139.068 9.68812C140.127 8.74955 141.539 8.28027 143.305 8.28027C145.747 8.28027 147.743 9.01999 149.294 10.4994L147.475 12.981C146.261 11.8197 144.771 11.2391 143.006 11.2391C142.315 11.2391 141.778 11.3823 141.394 11.6687C141.01 11.955 140.818 12.3448 140.818 12.8379C140.818 13.2197 141.033 13.5458 141.463 13.8162C141.908 14.0708 142.453 14.2617 143.098 14.3889C143.758 14.5161 144.465 14.707 145.217 14.9616C145.985 15.2002 146.691 15.4786 147.336 15.7968C147.997 16.099 148.542 16.5842 148.972 17.2524C149.417 17.9046 149.64 18.692 149.64 19.6146C149.64 21.1418 149.11 22.3747 148.051 23.3133C147.006 24.2518 145.486 24.721 143.489 24.721Z" fill="#999999"/>
<path d="M160.089 24.7211C157.77 24.7211 155.851 23.9496 154.33 22.4065C152.825 20.8476 152.073 18.875 152.073 16.4888C152.073 14.1026 152.825 12.138 154.33 10.5949C155.851 9.03596 157.77 8.25647 160.089 8.25647C162.423 8.25647 164.343 9.028 165.847 10.5711C167.368 12.1141 168.128 14.0867 168.128 16.4888C168.128 18.8909 167.368 20.8635 165.847 22.4065C164.343 23.9496 162.423 24.7211 160.089 24.7211ZM156.703 20.2352C157.564 21.2214 158.691 21.7145 160.089 21.7145C161.486 21.7145 162.615 21.2214 163.475 20.2352C164.335 19.2488 164.765 18.0001 164.765 16.4888C164.765 14.9776 164.335 13.7288 163.475 12.7425C162.615 11.7563 161.486 11.263 160.089 11.263C158.691 11.263 157.564 11.7563 156.703 12.7425C155.859 13.7288 155.436 14.9776 155.436 16.4888C155.436 18.0001 155.859 19.2488 156.703 20.2352Z" fill="#999999"/>
<path d="M174.663 24.4347H171.392V8.51892H182.263V11.5017H174.663V14.8662H182.102V17.8489H174.663V24.4347Z" fill="#999999"/>
<path d="M192.36 24.4347H189.066V11.5017H184.575V8.51892H196.829V11.5017H192.36V24.4347Z" fill="#999999"/>
<path fill-rule="evenodd" clip-rule="evenodd" d="M4.57467 7.26176L5.32947 16.015L14.3543 18.3779V23.1455L2.17897 18.4854L0.439636 4.49603L14.3543 0V5.09579L4.57467 7.26176ZM7.72832 13.071L14.3575 14.2852V9.1895L7.43296 10.4366L7.72832 13.071ZM2.51291 21.9245L3.00518 25.1169L14.3601 31.6804V27.2083L2.51291 21.9245Z" fill="#999999"/>
<path fill-rule="evenodd" clip-rule="evenodd" d="M14.362 5.09579L27.8173 7.58994L28.3096 4.49603L14.362 0V5.09579ZM20.5975 17.2951L14.3621 18.378V23.1457L20.2037 20.9469L20.5975 17.2951ZM14.3621 9.1895L27.5219 11.1257L25.7498 25.1151L14.3621 31.6787V27.2064L22.4353 23.4652L23.2885 13.6946L14.3621 14.2852V9.1895Z" fill="#999999"/>
</svg>
